<svg width="24" height="24" viewBox="0 0 24 24" fill="none" xmlns="http://www.w3.org/2000/svg">
<path d="M5 12.5C5.55228 12.5 6 12.0523 6 11.5V5C6 4.73478 6.10536 4.48043 6.29289 4.29289C6.48043 4.10536 6.73478 4 7 4H13.5V6.5C13.5 7.03043 13.7107 7.53914 14.0858 7.91421C14.4609 8.28929 14.9696 8.5 15.5 8.5H18V11.5C18 11.7652 18.1054 12.0196 18.2929 12.2071C18.4804 12.3946 18.7348 12.5 19 12.5C19.2652 12.5 19.5196 12.3946 19.7071 12.2071C19.8946 12.0196 20 11.7652 20 11.5V7C20 6.86872 19.9742 6.73873 19.9239 6.61745C19.8737 6.49617 19.8 6.38597 19.7072 6.29315L15.7072 2.29315C15.5197 2.10553 15.2653 2.00009 15 2H7C6.20435 2 5.44129 2.31607 4.87868 2.87868C4.31607 3.44129 4 4.20435 4 5V11.5C4 12.0523 4.44772 12.5 5 12.5Z" fill="#3F3E3B"/>
<path d="M16 14.5H19.25C19.6642 14.5 20 14.8358 20 15.25C20 15.6642 19.6642 16 19.25 16H17.5V17.5H19.25C19.6642 17.5 20 17.8358 20 18.25C20 18.6642 19.6642 19 19.25 19H17.5V21.25C17.5 21.6642 17.1642 22 16.75 22C16.3358 22 16 21.6642 16 21.25V14.5Z" fill="#3F3E3B"/>
<path fill-rule="evenodd" clip-rule="evenodd" d="M10 14.5V22H12.5C13.6046 22 14.5 21.1046 14.5 20V16.5C14.5 15.3954 13.6046 14.5 12.5 14.5H10ZM13 17C13 16.4477 12.5523 16 12 16H11.5V20.5H12C12.5523 20.5 13 20.0523 13 19.5V17Z" fill="#3F3E3B"/>
<path fill-rule="evenodd" clip-rule="evenodd" d="M4 21.25C4 21.6642 4.33579 22 4.75 22C5.16421 22 5.5 21.6642 5.5 21.25V19H7.5C8.05228 19 8.5 18.5523 8.5 18V15.5C8.5 14.9477 8.05228 14.5 7.5 14.5H4V21.25ZM7 16.5C7 16.2239 6.77614 16 6.5 16H5.5V17.5H6.5C6.77614 17.5 7 17.2761 7 17V16.5Z" fill="#3F3E3B"/>
</svg>
