<svg width="24" height="24" viewBox="0 0 24 24" fill="none" xmlns="http://www.w3.org/2000/svg">
<path d="M6 11.5C6 12.0523 5.55228 12.5 5 12.5C4.44772 12.5 4 12.0523 4 11.5V5C4 4.20435 4.31607 3.44129 4.87868 2.87868C5.44129 2.31607 6.20435 2 7 2H15C15.2653 2.00009 15.5197 2.10553 15.7072 2.29315L19.7072 6.29315C19.8 6.38597 19.8737 6.49617 19.9239 6.61745C19.9742 6.73873 20 6.86872 20 7V11.5C20 11.7652 19.8946 12.0196 19.7071 12.2071C19.5196 12.3946 19.2652 12.5 19 12.5C18.7348 12.5 18.4804 12.3946 18.2929 12.2071C18.1054 12.0196 18 11.7652 18 11.5V8.5H15.5C14.9696 8.5 14.4609 8.28929 14.0858 7.91421C13.7107 7.53914 13.5 7.03043 13.5 6.5V4H7C6.73478 4 6.48043 4.10536 6.29289 4.29289C6.10536 4.48043 6 4.73478 6 5V11.5Z" fill="#3F3E3B"/>
<path d="M6 14.5C4.89543 14.5 4 15.3954 4 16.5V20C4 21.1046 4.89543 22 6 22H7.25C7.66421 22 8 21.6642 8 21.25C8 20.8358 7.66421 20.5 7.25 20.5H6.5C5.94772 20.5 5.5 20.0523 5.5 19.5V17C5.5 16.4477 5.94772 16 6.5 16H7.25C7.66421 16 8 15.6642 8 15.25C8 14.8358 7.66421 14.5 7.25 14.5H6Z" fill="#3F3E3B"/>
<path d="M12.25 14.5C13.0784 14.5 13.75 15.1716 13.75 16H11.75C11.3358 16 11 16.3358 11 16.75C11 17.1642 11.3358 17.5 11.75 17.5H12C13.1046 17.5 14 18.3954 14 19.5V20C14 21.1046 13.1046 22 12 22H11.25C10.4216 22 9.75 21.3284 9.75 20.5H11.75C12.1642 20.5 12.5 20.1642 12.5 19.75C12.5 19.3358 12.1642 19 11.75 19H11.5C10.3954 19 9.5 18.1046 9.5 17V16.5C9.5 15.3954 10.3954 14.5 11.5 14.5H12.25Z" fill="#3F3E3B"/>
<path d="M15.5 14.5L16.8529 21.2646C16.9384 21.6922 17.3139 22 17.75 22C18.1861 22 18.5616 21.6922 18.6471 21.2646L20 14.5H18.9236C18.6791 14.5 18.4705 14.6767 18.4304 14.9178L17.75 19L17.0696 14.9178C17.0295 14.6767 16.8209 14.5 16.5764 14.5H15.5Z" fill="#3F3E3B"/>
</svg>
