<svg width="20" height="16" viewBox="0 0 20 16" fill="none" xmlns="http://www.w3.org/2000/svg">
<path d="M19.3044 6.3032L17.8679 4.58C17.5868 4.24171 17.2345 3.96957 16.8362 3.78298C16.4379 3.59639 16.0033 3.49994 15.5635 3.5005H13V3.0005C12.9991 2.20512 12.6828 1.44256 12.1204 0.880145C11.5579 0.317725 10.7954 0.00137368 10 0.000500202L2 0C1.46975 0.000595527 0.961388 0.211501 0.586444 0.586444C0.2115 0.961388 0.000595527 1.46975 0 2V2.5C0 2.76522 0.105357 3.01957 0.292893 3.20711C0.48043 3.39464 0.734784 3.5 1 3.5C1.26522 3.5 1.51957 3.39464 1.70711 3.20711C1.89464 3.01957 2 2.76522 2 2.5V2L10 2.00025C10.2651 2.00051 10.5193 2.10596 10.7068 2.29344C10.8943 2.48091 10.9997 2.73511 11 3.00025V4.71H10.9917V12H7.825C7.61908 11.4152 7.23675 10.9087 6.73074 10.5504C6.22474 10.1921 5.62001 9.99969 5 9.99969C4.37999 9.99969 3.77526 10.1921 3.26926 10.5504C2.76325 10.9087 2.38091 11.4152 2.175 12H2V10.4995C2 10.2343 1.89464 9.97993 1.70711 9.79239C1.51957 9.60486 1.26522 9.4995 1 9.4995C0.734784 9.4995 0.48043 9.60486 0.292893 9.79239C0.105357 9.97993 0 10.2343 0 10.4995V12C0.000582319 12.5303 0.211483 13.0386 0.58643 13.4136C0.961376 13.7885 1.46975 13.9994 2 14H2.175C2.38091 14.5848 2.76325 15.0913 3.26926 15.4496C3.77526 15.8079 4.37999 16.0003 5 16.0003C5.62001 16.0003 6.22474 15.8079 6.73074 15.4496C7.23675 15.0913 7.61908 14.5848 7.825 14H12.175C12.3809 14.5848 12.7633 15.0913 13.2693 15.4496C13.7753 15.8079 14.38 16.0003 15 16.0003C15.62 16.0003 16.2247 15.8079 16.7307 15.4496C17.2367 15.0913 17.6191 14.5848 17.825 14H18C18.5303 13.9994 19.0386 13.7885 19.4136 13.4136C19.7885 13.0386 19.9994 12.5303 20 12V8.2241C19.9995 7.52223 19.7535 6.84265 19.3044 6.3032ZM5 14C4.80222 14 4.60888 13.9414 4.44443 13.8315C4.27998 13.7216 4.15181 13.5654 4.07612 13.3827C4.00043 13.2 3.98063 12.9989 4.01921 12.8049C4.0578 12.6109 4.15304 12.4327 4.29289 12.2929C4.43275 12.153 4.61093 12.0578 4.80491 12.0192C4.99889 11.9806 5.19996 12.0004 5.38268 12.0761C5.56541 12.1518 5.72159 12.28 5.83147 12.4444C5.94135 12.6089 6 12.8022 6 13C5.99974 13.2651 5.89429 13.5193 5.70681 13.7068C5.51934 13.8943 5.26514 13.9997 5 14ZM15 14C14.8022 14 14.6089 13.9414 14.4444 13.8315C14.28 13.7216 14.1518 13.5654 14.0761 13.3827C14.0004 13.2 13.9806 12.9989 14.0192 12.8049C14.0578 12.6109 14.153 12.4327 14.2929 12.2929C14.4327 12.153 14.6109 12.0578 14.8049 12.0192C14.9989 11.9806 15.2 12.0004 15.3827 12.0761C15.5654 12.1518 15.7216 12.28 15.8315 12.4444C15.9414 12.6089 16 12.8022 16 13C15.9997 13.2651 15.8943 13.5193 15.7068 13.7068C15.5193 13.8943 15.2651 13.9997 15 14ZM18 12H17.825C17.6615 11.5342 17.3852 11.1161 17.0208 10.783C16.6563 10.4499 16.2151 10.2123 15.7365 10.0913C15.2578 9.97023 14.7567 9.96959 14.2778 10.0894C13.7988 10.2092 13.357 10.4457 12.9917 10.7779V5.5005H15V6.5C15 7.03043 15.2107 7.53914 15.5858 7.91421C15.9609 8.28929 16.4696 8.5 17 8.5H18V12Z" fill="#3F3E3B"/>
<path d="M0 6.5C0 6.76522 0.105357 7.01957 0.292893 7.20711C0.48043 7.39464 0.734784 7.5 1 7.5H5.22L4.85875 8.945C4.83693 9.0322 4.84202 9.12397 4.87334 9.20822C4.90466 9.29248 4.96074 9.36529 5.03422 9.41707C5.10769 9.46885 5.19512 9.49718 5.285 9.49834C5.37489 9.4995 5.46301 9.47342 5.5378 9.42355L8.6013 6.8404C8.65089 6.7986 8.69075 6.74648 8.71809 6.68768C8.74543 6.62887 8.7596 6.5648 8.7596 6.49995C8.7596 6.4351 8.74543 6.37103 8.71809 6.31222C8.69075 6.25342 8.65089 6.2013 8.6013 6.1595L5.5378 3.57625C5.463 3.52639 5.37487 3.50034 5.28499 3.50151C5.1951 3.50268 5.10768 3.53102 5.0342 3.58281C4.96073 3.6346 4.90465 3.70741 4.87333 3.79167C4.84202 3.87593 4.83693 3.9677 4.85875 4.0549L5.22 5.5H1C0.734784 5.5 0.48043 5.60536 0.292893 5.79289C0.105357 5.98043 0 6.23478 0 6.5Z" fill="#3F3E3B"/>
</svg>
