<svg width="17" height="18" viewBox="0 0 17 18" fill="none" xmlns="http://www.w3.org/2000/svg">
<path d="M16.2175 15.5104C15.9711 14.3316 15.4573 13.2251 14.7158 12.2761C13.9743 11.3272 13.0249 10.5611 11.9406 10.037C12.6765 9.29274 13.1758 8.34755 13.376 7.32026C13.5761 6.29296 13.468 5.22944 13.0653 4.2634C12.6626 3.29737 11.9833 2.47196 11.1128 1.89096C10.2423 1.30995 9.21941 0.999297 8.17281 0.998051C7.12621 0.996804 6.1026 1.30502 5.2307 1.88395C4.35879 2.46288 3.67752 3.28667 3.27253 4.25174C2.86755 5.21681 2.75694 6.28008 2.95461 7.30784C3.15228 8.33561 3.6494 9.28199 4.38347 10.028C3.30226 10.5574 2.35595 11.3263 1.61647 12.2763C0.876984 13.2263 0.363786 14.3323 0.115873 15.5104C0.0605537 15.8056 0.068569 16.1092 0.139388 16.4011C0.210207 16.6929 0.342215 16.9665 0.526673 17.2035C0.706472 17.438 0.935064 17.6307 1.19664 17.7682C1.45822 17.9057 1.74654 17.9848 2.04167 17.9999H14.2917C14.5868 17.9848 14.8751 17.9057 15.1367 17.7682C15.3983 17.6307 15.6269 17.438 15.8067 17.2035C15.9911 16.9664 16.1231 16.6929 16.1939 16.4011C16.2647 16.1092 16.2728 15.8056 16.2175 15.5104ZM2.09002 15.9999C2.2431 15.0994 2.61805 14.2512 3.18103 13.5319C3.744 12.8126 4.47727 12.2448 5.31462 11.8799C5.59652 11.7358 5.84031 11.527 6.02608 11.2707C6.21185 11.0143 6.33432 10.7176 6.38347 10.4049C6.4336 10.0906 6.40912 9.76902 6.312 9.466C6.21487 9.16297 6.04783 8.88704 5.82437 8.66049C5.35603 8.1909 5.03926 7.59167 4.91496 6.94021C4.79066 6.28874 4.86456 5.61498 5.1271 5.00594C5.38964 4.39691 5.82877 3.88058 6.38776 3.52367C6.94674 3.16675 7.59991 2.98564 8.26287 3.00374C8.91048 3.02186 9.53847 3.22997 10.0687 3.60219C10.599 3.97442 11.0081 4.49432 11.2452 5.09723C11.4823 5.70014 11.537 6.35946 11.4023 6.99318C11.2676 7.62689 10.9497 8.20703 10.4879 8.66144C10.2674 8.87583 10.1021 9.1405 10.0064 9.43275C9.91057 9.725 9.88707 10.0361 9.93787 10.3394C9.98717 10.662 10.1103 10.9687 10.2976 11.2359C10.4849 11.503 10.7314 11.7232 11.0179 11.8794C11.8553 12.2445 12.5886 12.8124 13.1517 13.5317C13.7148 14.2511 14.09 15.0993 14.2433 15.9999H2.09002Z" fill="#3F3E3B"/>
</svg>
