<svg xmlns="http://www.w3.org/2000/svg" xmlns:xlink="http://www.w3.org/1999/xlink" width="48" height="48" viewBox="0 0 48 48">
  <defs>
    <clipPath id="clip-path">
      <rect width="48" height="48"/>
    </clipPath>
  </defs>
  <g id="icones">
    <g opacity="0">
      <g>
        <rect width="48" height="48"/>
        <g clip-path="url(#clip-path)">
          <rect width="48" height="48"/>
        </g>
      </g>
    </g>
    <path d="M24,18.3633c1.7139,0,2.9092.959,2.9092,1.8183h4c0-2.5654-1.9854-4.7451-4.7276-5.5156V14a2,2,0,0,0-2-2h-.3637a2,2,0,0,0-2,2v.666c-2.7417.7705-4.7271,2.95-4.7271,5.5156C17.0908,23.39,20.19,26,24,26c1.7139,0,2.9092.959,2.9092,1.8184S25.7139,29.6357,24,29.6357s-2.9092-.958-2.9092-1.8173h-4c0,2.5654,1.9854,4.7441,4.7271,5.5156V34a2,2,0,0,0,2,2h.3637a2,2,0,0,0,2-2v-.666c2.7422-.7715,4.7276-2.95,4.7276-5.5156C30.9092,24.6113,27.81,22,24,22c-1.7139,0-2.9092-.958-2.9092-1.8184S22.2861,18.3633,24,18.3633"/>
    <path d="M24,4A20,20,0,1,0,44,24,20.0223,20.0223,0,0,0,24,4m0,36A16,16,0,1,1,40,24,16.0183,16.0183,0,0,1,24,40"/>
  </g>
</svg>
