<svg width="21" height="16" viewBox="0 0 21 16" fill="none" xmlns="http://www.w3.org/2000/svg">
<path d="M19.8848 0.91683C19.5952 0.736463 19.2641 0.633657 18.9233 0.618306C18.5825 0.602955 18.2435 0.675576 17.939 0.829181L14.2808 2.65803C14.1418 2.72717 13.9887 2.76315 13.8335 2.76315C13.6783 2.76315 13.5252 2.72717 13.3863 2.65803L8.72851 0.329181C8.45046 0.191032 8.1442 0.119141 7.83373 0.119141C7.52326 0.119141 7.217 0.191032 6.93896 0.329181L1.93851 2.82918C1.60569 2.99433 1.32577 3.24939 1.13047 3.56546C0.935173 3.88154 0.8323 4.24599 0.833507 4.61753V13.3821C0.833539 13.723 0.920713 14.0583 1.08675 14.356C1.25279 14.6538 1.49218 14.9041 1.78218 15.0833C2.07219 15.2625 2.4032 15.3646 2.74376 15.3799C3.08433 15.3952 3.42315 15.3232 3.72806 15.1707L7.38626 13.3416C7.52525 13.2726 7.67832 13.2367 7.83351 13.2367C7.98869 13.2367 8.14176 13.2726 8.28076 13.3416L13.0152 15.7093C13.25 15.8273 13.5058 15.8976 13.768 15.9162C14.0301 15.9348 14.2934 15.9013 14.5425 15.8177L19.4658 14.1766C19.8642 14.0441 20.2108 13.7895 20.4563 13.4489C20.7018 13.1083 20.8338 12.699 20.8335 12.2791V2.61753C20.8347 2.27644 20.7481 1.94078 20.5819 1.6429C20.4157 1.34502 20.1756 1.09497 19.8848 0.91683ZM2.83351 13.3861V4.61823L6.83351 2.61823V11.409C6.71674 11.4498 6.60259 11.4978 6.49171 11.5526L2.83351 13.3861ZM8.83351 11.409V2.61823L12.4917 4.44708C12.6024 4.50221 12.7166 4.55016 12.8335 4.59063V13.3817L9.17481 11.5526C9.06413 11.4977 8.95015 11.4497 8.83351 11.409ZM18.8335 12.279L14.8335 13.612V4.59063C14.9503 4.54994 15.0645 4.502 15.1753 4.44708L18.8335 2.61753V12.279Z" fill="#3F3E3B"/>
</svg>
