<svg xmlns="http://www.w3.org/2000/svg" xmlns:xlink="http://www.w3.org/1999/xlink" width="48" height="48" viewBox="0 0 48 48">
  <defs>
    <clipPath id="clip-path">
      <rect width="48" height="48"/>
    </clipPath>
  </defs>
  <g id="icones">
    <path d="M24,4A20,20,0,1,0,44,24,20.0226,20.0226,0,0,0,24,4M38.3652,17H33.541a24.3744,24.3744,0,0,0-2.7265-7.4551A16.088,16.088,0,0,1,38.3652,17M30.25,24c0,1.0259-.0479,2.0283-.1387,3H17.8877c-.09-.9717-.1377-1.9741-.1377-3s.0479-2.0278.1377-3H30.1113c.0908.9722.1387,1.9741.1387,3M24,39.813c-2.48-1.2969-4.4355-4.5449-5.4609-8.813H29.4609c-1.0254,4.2681-2.98,7.5161-5.4609,8.813M18.5391,17C19.5645,12.7319,21.52,9.4839,24,8.187c2.48,1.2969,4.4355,4.5449,5.4609,8.813ZM17.1855,9.5449A24.3744,24.3744,0,0,0,14.459,17H9.6348a16.08,16.08,0,0,1,7.5507-7.4551M8.292,21H13.88c-.0869,1.022-.13,2.0293-.13,3s.043,1.9771.13,3H8.292a15.557,15.557,0,0,1,0-6M9.6348,31H14.459a24.3744,24.3744,0,0,0,2.7265,7.4551A16.0857,16.0857,0,0,1,9.6348,31m21.18,7.4551A24.3744,24.3744,0,0,0,33.541,31h4.8242a16.0857,16.0857,0,0,1-7.5507,7.4551M39.708,27H34.12c.0869-1.0229.13-2.03.13-3s-.043-1.978-.13-3H39.708a15.557,15.557,0,0,1,0,6"/>
    <g opacity="0">
      <g>
        <rect width="48" height="48"/>
        <g clip-path="url(#clip-path)">
          <g opacity="0">
            <g>
              <rect width="48" height="48"/>
              <g clip-path="url(#clip-path)">
                <rect width="48" height="48"/>
              </g>
            </g>
          </g>
        </g>
      </g>
    </g>
  </g>
</svg>
