<svg width="24" height="24" viewBox="0 0 24 24" fill="none" xmlns="http://www.w3.org/2000/svg">
<path d="M12 2C10.0222 2 8.08879 2.58649 6.4443 3.6853C4.79981 4.78412 3.51809 6.3459 2.76121 8.17317C2.00433 10.0004 1.8063 12.0111 2.19215 13.9509C2.578 15.8907 3.53041 17.6725 4.92894 19.0711C6.32746 20.4696 8.10929 21.422 10.0491 21.8079C11.9889 22.1937 13.9996 21.9957 15.8268 21.2388C17.6541 20.4819 19.2159 19.2002 20.3147 17.5557C21.4135 15.9112 22 13.9778 22 12C21.997 9.34875 20.9425 6.80695 19.0678 4.93224C17.1931 3.05752 14.6513 2.00299 12 2ZM12 20C10.4178 20 8.87103 19.5308 7.55544 18.6518C6.23985 17.7727 5.21447 16.5233 4.60897 15.0615C4.00347 13.5997 3.84504 11.9911 4.15372 10.4393C4.4624 8.88743 5.22433 7.46197 6.34315 6.34315C7.46197 5.22433 8.88743 4.4624 10.4393 4.15372C11.9911 3.84504 13.5997 4.00346 15.0615 4.60896C16.5233 5.21447 17.7727 6.23984 18.6518 7.55544C19.5308 8.87103 20 10.4177 20 12C19.9976 14.121 19.1539 16.1544 17.6542 17.6542C16.1544 19.1539 14.121 19.9976 12 20Z" fill="#006399"/>
<path d="M16.2427 7.7573C16.0552 7.5698 15.8008 7.46446 15.5357 7.46446C15.2705 7.46446 15.0161 7.5698 14.8286 7.7573L12 10.5859L9.1709 7.7573C8.9825 7.5741 8.72955 7.47243 8.46676 7.47427C8.20397 7.47612 7.95248 7.58133 7.76666 7.76715C7.58084 7.95298 7.47564 8.20448 7.4738 8.46727C7.47197 8.73005 7.57365 8.983 7.75685 9.1714L10.586 12L7.75685 14.8288C7.66167 14.9212 7.58581 15.0315 7.53367 15.1534C7.48153 15.2754 7.45416 15.4064 7.45315 15.539C7.45215 15.6716 7.47752 15.8031 7.5278 15.9258C7.57807 16.0485 7.65225 16.16 7.74602 16.2537C7.83978 16.3475 7.95126 16.4217 8.07396 16.472C8.19666 16.5222 8.32813 16.5476 8.46073 16.5466C8.59333 16.5456 8.7244 16.5182 8.84632 16.4661C8.96824 16.4139 9.07858 16.3381 9.1709 16.2429L12 13.4141L14.8286 16.2429C14.921 16.3379 15.0313 16.4136 15.1532 16.4656C15.275 16.5176 15.406 16.5448 15.5385 16.5457C15.671 16.5467 15.8024 16.5213 15.925 16.471C16.0476 16.4207 16.159 16.3466 16.2526 16.2529C16.3463 16.1592 16.4205 16.0478 16.4708 15.9252C16.521 15.8026 16.5464 15.6713 16.5455 15.5388C16.5446 15.4063 16.5174 15.2753 16.4654 15.1534C16.4134 15.0316 16.3377 14.9212 16.2427 14.8288L13.4141 12L16.2427 9.1714C16.43 8.98378 16.5353 8.72949 16.5353 8.46435C16.5353 8.19921 16.43 7.94492 16.2427 7.7573Z" fill="#006399"/>
</svg>
