<svg width="20" height="20" viewBox="0 0 20 20" fill="none" xmlns="http://www.w3.org/2000/svg">
<path d="M10 0C8.02219 0 6.08879 0.58649 4.4443 1.6853C2.79981 2.78412 1.51809 4.3459 0.761209 6.17317C0.00433284 8.00043 -0.1937 10.0111 0.192152 11.9509C0.578004 13.8907 1.53041 15.6725 2.92894 17.0711C4.32746 18.4696 6.10929 19.422 8.0491 19.8079C9.98891 20.1937 11.9996 19.9957 13.8268 19.2388C15.6541 18.4819 17.2159 17.2002 18.3147 15.5557C19.4135 13.9112 20 11.9778 20 10C19.997 7.34875 18.9425 4.80695 17.0678 2.93224C15.1931 1.05752 12.6513 0.00299084 10 0ZM10 18C8.41775 18 6.87103 17.5308 5.55544 16.6518C4.23985 15.7727 3.21447 14.5233 2.60897 13.0615C2.00347 11.5997 1.84504 9.99113 2.15372 8.43928C2.4624 6.88743 3.22433 5.46197 4.34315 4.34315C5.46197 3.22433 6.88743 2.4624 8.43928 2.15372C9.99113 1.84504 11.5997 2.00346 13.0615 2.60896C14.5233 3.21447 15.7727 4.23984 16.6518 5.55544C17.5308 6.87103 18 8.41775 18 10C17.9976 12.121 17.1539 14.1544 15.6542 15.6542C14.1544 17.1539 12.121 17.9976 10 18Z" fill="#8E640B"/>
<path d="M10 13C9.70333 13 9.41332 13.088 9.16665 13.2528C8.91998 13.4176 8.72772 13.6519 8.61418 13.926C8.50065 14.2001 8.47095 14.5017 8.52883 14.7926C8.5867 15.0836 8.72956 15.3509 8.93934 15.5607C9.14912 15.7704 9.4164 15.9133 9.70737 15.9712C9.99834 16.0291 10.2999 15.9993 10.574 15.8858C10.8481 15.7723 11.0824 15.58 11.2472 15.3334C11.412 15.0867 11.5 14.7967 11.5 14.5C11.4995 14.1023 11.3413 13.7211 11.0601 13.4399C10.7789 13.1587 10.3977 13.0005 10 13Z" fill="#8E640B"/>
<path d="M10 11.5C10.2712 11.4999 10.5322 11.3967 10.7302 11.2114C10.9282 11.0261 11.0483 10.7725 11.0664 10.502L11.4239 5.14C11.4336 4.99396 11.4133 4.84748 11.3641 4.70963C11.3149 4.57178 11.238 4.44549 11.138 4.33861C11.038 4.23173 10.9171 4.14652 10.7828 4.08827C10.6486 4.03003 10.5038 3.99998 10.3574 4H9.6424C9.49604 3.99998 9.35124 4.03003 9.21697 4.08827C9.08269 4.14652 8.96182 4.23173 8.86183 4.33861C8.76184 4.44549 8.68488 4.57178 8.6357 4.70963C8.58652 4.84748 8.56619 4.99396 8.57595 5.14L8.9334 10.5018C8.95135 10.7725 9.07152 11.0262 9.26957 11.2115C9.46763 11.3969 9.72875 11.5 10 11.5Z" fill="#8E640B"/>
</svg>
