<svg width="24" height="24" viewBox="0 0 24 24" fill="none" xmlns="http://www.w3.org/2000/svg">
<path d="M19.707 6.29295L15.707 2.29295C15.5195 2.10541 15.2652 2.00003 15 2H8.99999C8.2046 2.00082 7.44201 2.31715 6.87958 2.87959C6.31715 3.44202 6.00081 4.2046 5.99999 5V6C5.99999 6.26522 6.10535 6.51957 6.29289 6.70711C6.48042 6.89464 6.73478 7 6.99999 7C7.26521 7 7.51956 6.89464 7.7071 6.70711C7.89464 6.51957 7.99999 6.26522 7.99999 6V5C8.00022 4.73485 8.10565 4.48063 8.29314 4.29314C8.48062 4.10565 8.73485 4.00023 8.99999 4H13.5V6.5C13.5005 7.03027 13.7114 7.53868 14.0864 7.91364C14.4613 8.2886 14.9697 8.49948 15.5 8.5H18V19C17.9996 19.2651 17.8941 19.5192 17.7067 19.7067C17.5192 19.8941 17.2651 19.9996 17 20H8.99999C8.73485 19.9998 8.48062 19.8943 8.29314 19.7069C8.10565 19.5194 8.00022 19.2651 7.99999 19V17C7.99999 16.7348 7.89464 16.4804 7.7071 16.2929C7.51956 16.1054 7.26521 16 6.99999 16C6.73478 16 6.48042 16.1054 6.29289 16.2929C6.10535 16.4804 5.99999 16.7348 5.99999 17V19C6.00081 19.7954 6.31715 20.558 6.87958 21.1204C7.44201 21.6828 8.2046 21.9992 8.99999 22H17C17.7954 21.9992 18.558 21.6828 19.1204 21.1204C19.6828 20.558 19.9992 19.7954 20 19V7C20 6.7348 19.8946 6.48046 19.707 6.29295Z" fill="#0071AD"/>
<path d="M14 18V16L6.20704 8.20705C6.11421 8.11417 6.00399 8.04048 5.88267 7.99021C5.76135 7.93994 5.63132 7.91407 5.49999 7.91407C5.36867 7.91407 5.23864 7.93994 5.11732 7.99021C4.996 8.04048 4.88578 8.11417 4.79294 8.20705L4.20704 8.79295C4.11416 8.88578 4.04048 8.99601 3.99021 9.11733C3.93994 9.23864 3.91406 9.36868 3.91406 9.5C3.91406 9.63132 3.93994 9.76136 3.99021 9.88267C4.04048 10.004 4.11416 10.1142 4.20704 10.2071L12 18H14Z" fill="#0071AD"/>
</svg>
