<svg width="24" height="24" viewBox="0 0 24 24" fill="none" xmlns="http://www.w3.org/2000/svg">
<path d="M12 2C10.0222 2 8.08879 2.58649 6.4443 3.6853C4.79981 4.78412 3.51809 6.3459 2.76121 8.17317C2.00433 10.0004 1.8063 12.0111 2.19215 13.9509C2.578 15.8907 3.53041 17.6725 4.92894 19.0711C6.32746 20.4696 8.10929 21.422 10.0491 21.8079C11.9889 22.1937 13.9996 21.9957 15.8268 21.2388C17.6541 20.4819 19.2159 19.2002 20.3147 17.5557C21.4135 15.9112 22 13.9778 22 12C21.997 9.34875 20.9425 6.80695 19.0678 4.93224C17.1931 3.05752 14.6512 2.00299 12 2ZM12 20C10.4178 20 8.87103 19.5308 7.55544 18.6518C6.23985 17.7727 5.21447 16.5233 4.60897 15.0615C4.00347 13.5997 3.84504 11.9911 4.15372 10.4393C4.4624 8.88743 5.22433 7.46197 6.34315 6.34315C7.46197 5.22433 8.88743 4.4624 10.4393 4.15372C11.9911 3.84504 13.5997 4.00346 15.0615 4.60896C16.5233 5.21447 17.7727 6.23984 18.6518 7.55544C19.5308 8.87103 20 10.4177 20 12C19.9976 14.121 19.1539 16.1544 17.6542 17.6542C16.1544 19.1539 14.121 19.9976 12 20Z" fill="#8E640B"/>
<path d="M12 15C11.7033 15 11.4133 15.088 11.1666 15.2528C10.92 15.4176 10.7277 15.6519 10.6142 15.926C10.5007 16.2001 10.4709 16.5017 10.5288 16.7926C10.5867 17.0836 10.7296 17.3509 10.9393 17.5607C11.1491 17.7704 11.4164 17.9133 11.7074 17.9712C11.9983 18.0291 12.2999 17.9993 12.574 17.8858C12.8481 17.7723 13.0824 17.58 13.2472 17.3334C13.412 17.0867 13.5 16.7967 13.5 16.5C13.4995 16.1023 13.3413 15.7211 13.0601 15.4399C12.7789 15.1587 12.3977 15.0005 12 15Z" fill="#8E640B"/>
<path d="M12 13.5C12.2712 13.4999 12.5322 13.3967 12.7302 13.2114C12.9282 13.0261 13.0483 12.7725 13.0664 12.502L13.4239 7.14C13.4336 6.99397 13.4133 6.84748 13.3641 6.70963C13.3149 6.57178 13.238 6.44549 13.138 6.33861C13.038 6.23173 12.9171 6.14652 12.7828 6.08827C12.6486 6.03003 12.5038 5.99998 12.3574 6H11.6424C11.496 5.99998 11.3512 6.03003 11.217 6.08827C11.0827 6.14652 10.9618 6.23173 10.8618 6.33861C10.7618 6.44549 10.6849 6.57178 10.6357 6.70963C10.5865 6.84748 10.5662 6.99397 10.576 7.14L10.9334 12.5018C10.9513 12.7725 11.0715 13.0262 11.2696 13.2115C11.4676 13.3969 11.7287 13.5 12 13.5Z" fill="#8E640B"/>
</svg>
