<svg width="24" height="24" viewBox="0 0 24 24" fill="none" xmlns="http://www.w3.org/2000/svg">
<path d="M21.3044 10.3032L19.8679 8.57983C19.5868 8.24157 19.2345 7.96952 18.8362 7.78296C18.4379 7.5964 18.0033 7.49991 17.5635 7.50049H15V7.00024C14.9991 6.20486 14.6828 5.4423 14.1204 4.87988C13.5579 4.31746 12.7954 4.00112 12 4.00024L4 4C3.46975 4.0006 2.9614 4.21148 2.58646 4.58643C2.21151 4.96137 2.0006 5.46975 2 6V6.5C2 6.76522 2.10537 7.01962 2.29291 7.20715C2.48044 7.39469 2.73478 7.5 3 7.5C3.26522 7.5 3.51956 7.39469 3.70709 7.20715C3.89463 7.01962 4 6.76522 4 6.5V6L12 6.00024C12.2651 6.00051 12.5193 6.10598 12.7068 6.29346C12.8943 6.48094 12.9997 6.73511 13 7.00024V8.70996H12.9917V16H9.82501C9.61912 15.4152 9.23679 14.9086 8.7308 14.5503C8.22482 14.192 7.6201 13.9995 7.00009 13.9995C6.38008 13.9995 5.77534 14.1919 5.26932 14.5502C4.7633 14.9084 4.38093 15.4149 4.17499 15.9998H4V14.4995C4 14.2343 3.89463 13.9799 3.70709 13.7924C3.51956 13.6048 3.26522 13.4995 3 13.4995C2.73478 13.4995 2.48044 13.6048 2.29291 13.7924C2.10537 13.9799 2 14.2343 2 14.4995V16C2.00058 16.5303 2.21148 17.0386 2.58643 17.4136C2.96137 17.7885 3.46975 17.9994 4 18H4.17499C4.38088 18.5848 4.76321 19.0914 5.2692 19.4497C5.77518 19.808 6.3799 20.0005 6.99991 20.0005C7.61992 20.0005 8.22466 19.8081 8.73068 19.4498C9.2367 19.0916 9.61907 18.5851 9.82501 18.0002H14.175C14.3809 18.5851 14.7633 19.0915 15.2693 19.4498C15.7753 19.8081 16.38 20.0006 17 20.0006C17.62 20.0006 18.2247 19.8081 18.7307 19.4498C19.2367 19.0915 19.6191 18.5851 19.825 18.0002H20C20.5303 17.9996 21.0386 17.7888 21.4135 17.4138C21.7885 17.0389 21.9994 16.5305 22 16.0002V12.2244C21.9996 11.5224 21.7535 10.8427 21.3044 10.3032V10.3032ZM7 18C6.80222 18 6.60888 17.9413 6.44443 17.8314C6.27998 17.7215 6.1518 17.5654 6.07611 17.3827C6.00042 17.2 5.98064 16.9989 6.01923 16.8049C6.05781 16.611 6.15306 16.4327 6.29291 16.2928C6.43276 16.153 6.61092 16.0578 6.8049 16.0192C6.99888 15.9806 7.19996 16.0005 7.38269 16.0762C7.56542 16.1519 7.7216 16.28 7.83148 16.4445C7.94136 16.6089 8 16.8022 8 17C7.99974 17.2651 7.8943 17.5193 7.70682 17.7068C7.51934 17.8943 7.26514 17.9997 7 18V18ZM17 18C16.8022 18 16.6089 17.9413 16.4444 17.8314C16.28 17.7215 16.1518 17.5654 16.0761 17.3827C16.0004 17.2 15.9806 16.9989 16.0192 16.8049C16.0578 16.611 16.1531 16.4327 16.2929 16.2928C16.4328 16.153 16.6109 16.0578 16.8049 16.0192C16.9989 15.9806 17.2 16.0005 17.3827 16.0762C17.5654 16.1519 17.7216 16.28 17.8315 16.4445C17.9414 16.6089 18 16.8022 18 17C17.9997 17.2651 17.8943 17.5193 17.7068 17.7068C17.5193 17.8943 17.2651 17.9997 17 18V18ZM20 16H19.825C19.6615 15.5342 19.3852 15.116 19.0208 14.783C18.6563 14.4499 18.2151 14.2123 17.7365 14.0913C17.2578 13.9703 16.7567 13.9696 16.2777 14.0894C15.7988 14.2092 15.357 14.4457 14.9917 14.7778V9.50049H17V10.5C17 11.0304 17.2107 11.5391 17.5858 11.9142C17.9609 12.2893 18.4696 12.5 19 12.5H20V16Z" fill="#0071AD"/>
<path d="M2 10.5C2 10.7653 2.10537 11.0197 2.29291 11.2072C2.48044 11.3947 2.73478 11.5 3 11.5H7.22L6.85876 12.945C6.83695 13.0322 6.84203 13.124 6.87335 13.2083C6.90467 13.2925 6.96073 13.3654 7.03421 13.4172C7.10769 13.4689 7.19512 13.4972 7.285 13.4983C7.37489 13.4995 7.46303 13.4735 7.53781 13.4236L10.6013 10.8405C10.6509 10.7987 10.6907 10.7465 10.7181 10.6877C10.7454 10.6289 10.7596 10.5649 10.7596 10.5C10.7596 10.4352 10.7454 10.3711 10.7181 10.3123C10.6907 10.2535 10.6509 10.2014 10.6013 10.1596L7.53781 7.57633C7.46301 7.52647 7.37486 7.50033 7.28497 7.5015C7.19509 7.50267 7.10768 7.53101 7.03421 7.5828C6.96074 7.63459 6.90464 7.7074 6.87332 7.79166C6.84201 7.87592 6.83695 7.96777 6.85876 8.05497L7.22 9.49992H3C2.86867 9.49992 2.73861 9.52583 2.61728 9.57609C2.49595 9.62635 2.38571 9.70002 2.29285 9.79288C2.19999 9.88575 2.12633 9.99601 2.07608 10.1173C2.02583 10.2387 1.99999 10.3687 2 10.5Z" fill="#0071AD"/>
</svg>
