<svg width="24" height="24" viewBox="0 0 24 24" fill="none" xmlns="http://www.w3.org/2000/svg">
<path d="M5.75 19.0008H9.5C9.76522 19.0008 10.0196 19.1062 10.2071 19.2937C10.3946 19.4813 10.5 19.7356 10.5 20.0008C10.5 20.2661 10.3946 20.5204 10.2071 20.7079C10.0196 20.8955 9.76522 21.0008 9.5 21.0008H5.75C5.03938 21.018 4.35094 20.7528 3.83549 20.2633C3.32003 19.7739 3.0196 19.1 3 18.3895V5.61115C3.01966 4.90064 3.32013 4.22689 3.83557 3.73748C4.35102 3.24807 5.03943 2.9829 5.75 3.00005L15 3.00005C15.2337 3.00002 15.4601 3.08192 15.6397 3.2315L18.6397 5.7315C18.7524 5.82535 18.8431 5.94284 18.9054 6.07566C18.9677 6.20847 19 6.35336 19 6.50005V9.50005C19 9.76526 18.8946 10.0196 18.7071 10.2072C18.5196 10.3947 18.2652 10.5 18 10.5C17.7348 10.5 17.4804 10.3947 17.2929 10.2072C17.1054 10.0196 17 9.76526 17 9.50005V8.50005H15C14.6023 8.49961 14.221 8.34143 13.9398 8.06022C13.6586 7.77901 13.5004 7.39774 13.5 7.00005V5.00005L5.75 5.00005C5.5704 4.98599 5.39229 5.04163 5.25264 5.15543C5.11298 5.26922 5.02251 5.43242 5 5.61115V18.3895C5.02041 18.5691 5.11031 18.7337 5.25046 18.8479C5.39062 18.9622 5.56991 19.0171 5.75 19.0008Z" fill="#3F3E3B"/>
<path fill-rule="evenodd" clip-rule="evenodd" d="M11 10.5C11 10 10.4654 9.62505 9.75 9.62505C9.0342 9.62505 8.5 9.95855 8.5 10.3125C8.5 10.6665 9.0342 11 9.75 11C10.9373 11 11.9779 11.5417 12.5451 12.3482C13.0798 11.9312 13.7155 11.6536 14.3947 11.5478C15.3595 11.3976 16.346 11.6043 17.1693 12.1293C17.9926 12.6543 18.5961 13.4615 18.8669 14.3996C19.1376 15.3378 19.057 16.3425 18.64 17.2254L20.7318 19.3172C20.9154 19.5055 21.0175 19.7586 21.0158 20.0216C21.0141 20.2846 20.9089 20.5364 20.7229 20.7224C20.5369 20.9084 20.2852 21.0136 20.0221 21.0153C19.7591 21.0169 19.506 20.9149 19.3177 20.7313L17.3553 18.7689C16.5627 19.3391 15.5894 19.6008 14.6177 19.5048C13.646 19.4088 12.7427 18.9618 12.077 18.2475C11.5615 17.6944 11.2159 17.0104 11.0735 16.2767C10.9679 16.3125 10.8599 16.3422 10.75 16.3655V16.5C10.75 16.7653 10.6446 17.0196 10.4571 17.2072C10.2696 17.3947 10.0152 17.5 9.75 17.5C9.48478 17.5 9.23043 17.3947 9.04289 17.2072C8.85536 17.0196 8.75 16.7653 8.75 16.5V16.3655C7.4458 16.0076 6.5 15 6.5 14H8.5C8.82018 14.3622 9.26819 14.5862 9.75 14.625C10.4654 14.625 11 14.104 11 13.75C11 13.396 10.4654 13 9.75 13C7.958 13 6.5 11.7661 6.5 10.25C6.53673 9.62781 6.77679 9.03485 7.18329 8.56231C7.58979 8.08978 8.14023 7.76382 8.75 7.63455V7.50005C8.75 7.23483 8.85536 6.98048 9.04289 6.79294C9.23043 6.6054 9.48478 6.50005 9.75 6.50005C10.0152 6.50005 10.2696 6.6054 10.4571 6.79294C10.6446 6.98048 10.75 7.23483 10.75 7.50005V7.63455C11.3978 7.77974 11.9756 8.14424 12.3856 8.66639C12.7956 9.18854 13.0126 9.83629 13 10.5H11ZM13.9136 17.1872C14.2425 17.4069 14.6292 17.5242 15.0248 17.5242C15.555 17.5237 16.0635 17.3128 16.4384 16.9379C16.8134 16.5629 17.0243 16.0545 17.0248 15.5242C17.0248 15.1287 16.9075 14.742 16.6877 14.4131C16.4679 14.0842 16.1556 13.8278 15.7901 13.6765C15.4247 13.5251 15.0226 13.4855 14.6346 13.5627C14.2466 13.6398 13.8903 13.8303 13.6106 14.11C13.3309 14.3897 13.1404 14.7461 13.0632 15.1341C12.986 15.522 13.0256 15.9241 13.177 16.2896C13.3284 16.6551 13.5847 16.9674 13.9136 17.1872Z" fill="#3F3E3B"/>
</svg>
