<svg width="24" height="24" viewBox="0 0 24 24" fill="none" xmlns="http://www.w3.org/2000/svg">
<path d="M14 12C14 11.5 13.4654 11.125 12.75 11.125C12.0342 11.125 11.5 11.4585 11.5 11.8125C11.5 12.1665 12.0342 12.5 12.75 12.5C14.542 12.5 16 13.7339 16 15.25C15.9633 15.8722 15.7232 16.4652 15.3167 16.9377C14.9102 17.4103 14.3598 17.7362 13.75 17.8655V18C13.75 18.2652 13.6446 18.5196 13.4571 18.7071C13.2696 18.8946 13.0152 19 12.75 19C12.4848 19 12.2304 18.8946 12.0429 18.7071C11.8554 18.5196 11.75 18.2652 11.75 18V17.8655C10.4458 17.5075 9.5 16.5 9.5 15.5H11.5C11.8202 15.8621 12.2682 16.0861 12.75 16.125C13.4654 16.125 14 15.604 14 15.25C14 14.896 13.4654 14.5 12.75 14.5C10.958 14.5 9.5 13.2661 9.5 11.75C9.53673 11.1278 9.77679 10.5348 10.1833 10.0623C10.5898 9.58974 11.1402 9.26378 11.75 9.1345V9C11.75 8.73478 11.8554 8.48043 12.0429 8.29289C12.2304 8.10536 12.4848 8 12.75 8C13.0152 8 13.2696 8.10536 13.4571 8.29289C13.6446 8.48043 13.75 8.73478 13.75 9V9.1345C14.3978 9.27969 14.9756 9.6442 15.3856 10.1663C15.7956 10.6885 16.0126 11.3362 16 12H14Z" fill="#3F3E3B"/>
<path d="M15.7071 2.29295L19.7071 6.29295C19.8945 6.4805 19.9999 6.73481 20 7V19C19.9992 19.7954 19.6828 20.558 19.1204 21.1204C18.558 21.6828 17.7954 21.9992 17 22H9C8.2046 21.9992 7.44202 21.6828 6.87959 21.1204C6.31715 20.558 6.00082 19.7954 6 19H5C4.44772 19 4 18.5523 4 18C4 17.4477 4.44772 17 5 17H6V15H4C3.44772 15 3 14.5523 3 14C3 13.4477 3.44772 13 4 13H6V11H5C4.44772 11 4 10.5523 4 10C4 9.44772 4.44772 9 5 9H6V7H3C2.44772 7 2 6.55228 2 6C2 5.44772 2.44772 5 3 5H6C6.00082 4.2046 6.31715 3.44202 6.87959 2.87959C7.44202 2.31715 8.2046 2.00082 9 2H15C15.2652 2.00014 15.5195 2.1055 15.7071 2.29295ZM8 5V19C8.00023 19.2651 8.10565 19.5194 8.29314 19.7069C8.48063 19.8943 8.73485 19.9998 9 20H17C17.2651 19.9997 17.5193 19.8942 17.7068 19.7068C17.8942 19.5193 17.9997 19.2651 18 19V8.5H15.5C14.9697 8.49948 14.4613 8.2886 14.0864 7.91364C13.7114 7.53868 13.5005 7.03027 13.5 6.5V4H9C8.73485 4.00023 8.48063 4.10565 8.29314 4.29314C8.10565 4.48063 8.00023 4.73485 8 5Z" fill="#3F3E3B"/>
</svg>
