<svg width="24" height="24" viewBox="0 0 24 24" fill="none" xmlns="http://www.w3.org/2000/svg">
<path d="M20.7071 19.3284L19.6464 18.2678L20.7071 17.2071C21.0976 16.8166 21.0976 16.1834 20.7071 15.7929C20.3166 15.4024 19.6834 15.4024 19.2929 15.7929L18.2322 16.8536L17.1716 15.7929C16.7811 15.4024 16.1479 15.4024 15.7574 15.7929C15.3668 16.1835 15.3669 16.8166 15.7574 17.2071L16.818 18.2678L15.7574 19.3284C15.3669 19.7189 15.3669 20.3521 15.7574 20.7426C16.1479 21.1331 16.7811 21.1331 17.1716 20.7426L18.2322 19.682L19.2929 20.7426C19.6834 21.1331 20.3166 21.1331 20.7071 20.7426C21.0976 20.3521 21.0976 19.7189 20.7071 19.3284Z" fill="#0071AD"/>
<path d="M12.5 16.5V14.5L5.27343 7.20705C4.88613 6.8164 4.25868 6.8164 3.87138 7.20705L3.29048 7.79295C2.90317 8.1836 2.90317 8.8164 3.29048 9.20705L10.517 16.5H12.5Z" fill="#0071AD"/>
<path d="M12.5 18.5H8.99998C8.44768 18.5 7.99998 18.0523 7.99998 17.5V17C7.99998 16.4477 7.55228 16 6.99998 16C6.44768 16 5.99998 16.4477 5.99998 17V17.5C5.99998 19.1568 7.34313 20.5 8.99998 20.5H12.4577C12.8947 20.5 13.3162 20.2426 13.4484 19.826C13.6675 19.1355 13.1579 18.5 12.5 18.5Z" fill="#0071AD"/>
<path d="M19.2071 7.20705L15.2928 3.29285C15.1053 3.10535 14.851 3 14.5858 3H8.99998C7.34313 3 5.99998 4.34315 5.99998 6C5.99998 6.5523 6.44768 7 6.99998 7C7.55228 7 7.99998 6.5523 7.99998 6C7.99998 5.4477 8.44768 5 8.99998 5H13V7.5C13 8.60455 13.8954 9.5 15 9.5H17.5V12.4464C17.5 12.9445 17.8403 13.4063 18.332 13.4863C18.9585 13.5883 19.5 13.1073 19.5 12.5V7.91415C19.5 7.6489 19.3946 7.3946 19.2071 7.20705Z" fill="#0071AD"/>
</svg>
