<svg width="20" height="20" viewBox="0 0 20 20" fill="none" xmlns="http://www.w3.org/2000/svg">
<path d="M10 0C8.02219 0 6.08879 0.58649 4.4443 1.6853C2.79981 2.78412 1.51809 4.3459 0.761209 6.17317C0.00433284 8.00043 -0.1937 10.0111 0.192152 11.9509C0.578004 13.8907 1.53041 15.6725 2.92894 17.0711C4.32746 18.4696 6.10929 19.422 8.0491 19.8079C9.98891 20.1937 11.9996 19.9957 13.8268 19.2388C15.6541 18.4819 17.2159 17.2002 18.3147 15.5557C19.4135 13.9112 20 11.9778 20 10C19.997 7.34875 18.9425 4.80695 17.0678 2.93224C15.1931 1.05752 12.6512 0.00299084 10 0ZM10 18C8.41775 18 6.87103 17.5308 5.55544 16.6518C4.23985 15.7727 3.21447 14.5233 2.60897 13.0615C2.00347 11.5997 1.84504 9.99113 2.15372 8.43928C2.4624 6.88743 3.22433 5.46197 4.34315 4.34315C5.46197 3.22433 6.88743 2.4624 8.43928 2.15372C9.99113 1.84504 11.5997 2.00346 13.0615 2.60896C14.5233 3.21447 15.7727 4.23984 16.6518 5.55544C17.5308 6.87103 18 8.41775 18 10C17.9976 12.121 17.1539 14.1544 15.6542 15.6542C14.1544 17.1539 12.121 17.9976 10 18Z" fill="#D50000"/>
<path d="M14.2427 5.7573C14.0552 5.5698 13.8008 5.46446 13.5357 5.46446C13.2705 5.46446 13.0161 5.5698 12.8286 5.7573L10 8.58595L7.1709 5.7573C6.9825 5.5741 6.72955 5.47243 6.46676 5.47427C6.20397 5.47612 5.95248 5.58133 5.76666 5.76715C5.58084 5.95298 5.47564 6.20448 5.4738 6.46727C5.47197 6.73005 5.57365 6.983 5.75685 7.1714L8.58595 10L5.75685 12.8288C5.66167 12.9212 5.58581 13.0315 5.53367 13.1534C5.48153 13.2754 5.45416 13.4064 5.45315 13.539C5.45215 13.6716 5.47752 13.8031 5.5278 13.9258C5.57807 14.0485 5.65225 14.16 5.74602 14.2537C5.83978 14.3475 5.95126 14.4217 6.07396 14.472C6.19666 14.5222 6.32813 14.5476 6.46073 14.5466C6.59333 14.5456 6.7244 14.5182 6.84632 14.4661C6.96824 14.4139 7.07858 14.3381 7.1709 14.2429L10 11.4141L12.8286 14.2429C12.921 14.3379 13.0313 14.4136 13.1532 14.4656C13.275 14.5176 13.406 14.5448 13.5385 14.5457C13.671 14.5467 13.8024 14.5213 13.925 14.471C14.0476 14.4207 14.159 14.3466 14.2526 14.2529C14.3463 14.1592 14.4205 14.0478 14.4708 13.9252C14.521 13.8026 14.5464 13.6713 14.5455 13.5388C14.5446 13.4063 14.5174 13.2753 14.4654 13.1534C14.4134 13.0316 14.3377 12.9212 14.2427 12.8288L11.4141 10L14.2427 7.1714C14.43 6.98378 14.5353 6.72949 14.5353 6.46435C14.5353 6.19921 14.43 5.94492 14.2427 5.7573Z" fill="#D50000"/>
</svg>
