<svg width="24" height="24" viewBox="0 0 24 24" fill="none" xmlns="http://www.w3.org/2000/svg">
<path d="M9 12.5C9.39556 12.5 9.78224 12.3827 10.1111 12.1629C10.44 11.9432 10.6964 11.6308 10.8478 11.2654C10.9991 10.8999 11.0387 10.4978 10.9616 10.1098C10.8844 9.72186 10.6939 9.36549 10.4142 9.08579C10.1345 8.80608 9.77814 8.6156 9.39018 8.53843C9.00222 8.46126 8.60009 8.50087 8.23463 8.65224C7.86918 8.80362 7.55682 9.05996 7.33706 9.38886C7.1173 9.71776 7 10.1044 7 10.5C7.00052 11.0303 7.2114 11.5387 7.58636 11.9136C7.96132 12.2886 8.46973 12.4995 9 12.5Z" fill="#0071AD"/>
<path d="M9 12.5C7.285 12.5 6 13.475 6 15.5H12C12 13.475 10.7139 12.5 9 12.5Z" fill="#0071AD"/>
<path d="M19 4H5C4.20462 4.00087 3.44206 4.31722 2.87964 4.87964C2.31722 5.44206 2.00087 6.20462 2 7V17C2.00087 17.7954 2.31722 18.5579 2.87964 19.1204C3.44206 19.6828 4.20462 19.9991 5 20H19C19.7954 19.9991 20.5579 19.6828 21.1204 19.1204C21.6828 18.5579 21.9991 17.7954 22 17V7C21.9991 6.20462 21.6828 5.44206 21.1204 4.87964C20.5579 4.31722 19.7954 4.00087 19 4ZM20 17C19.9997 17.2651 19.8943 17.5193 19.7068 17.7068C19.5193 17.8943 19.2651 17.9997 19 18H5C4.73484 17.9998 4.48059 17.8944 4.2931 17.7069C4.1056 17.5194 4.00019 17.2652 4 17V7C4.00026 6.73486 4.10571 6.48066 4.29319 6.29319C4.48066 6.10571 4.73486 6.00026 5 6H19C19.2651 6.00036 19.5193 6.10583 19.7067 6.29329C19.8942 6.48075 19.9996 6.73489 20 7V17Z" fill="#0071AD"/>
<path d="M16.9692 13H14.5C14.2348 13 13.9804 13.1054 13.7929 13.2929C13.6054 13.4804 13.5 13.7348 13.5 14C13.5 14.2652 13.6054 14.5196 13.7929 14.7071C13.9804 14.8946 14.2348 15 14.5 15H16.9692C17.2345 15 17.4888 14.8946 17.6764 14.7071C17.8639 14.5196 17.9692 14.2652 17.9692 14C17.9692 13.7348 17.8639 13.4804 17.6764 13.2929C17.4888 13.1054 17.2345 13 16.9692 13Z" fill="#0071AD"/>
<path d="M16.9692 9H14.5C14.2348 9 13.9804 9.10536 13.7929 9.29289C13.6054 9.48043 13.5 9.73478 13.5 10C13.5 10.2652 13.6054 10.5196 13.7929 10.7071C13.9804 10.8946 14.2348 11 14.5 11H16.9692C17.2345 11 17.4888 10.8946 17.6764 10.7071C17.8639 10.5196 17.9692 10.2652 17.9692 10C17.9692 9.73478 17.8639 9.48043 17.6764 9.29289C17.4888 9.10536 17.2345 9 16.9692 9Z" fill="#0071AD"/>
</svg>
