<svg width="20" height="20" viewBox="0 0 20 20" fill="none" xmlns="http://www.w3.org/2000/svg">
<path d="M5.5 8.5C5.30222 8.5 5.10888 8.55865 4.94443 8.66853C4.77998 8.77841 4.65181 8.93459 4.57612 9.11732C4.50043 9.30004 4.48063 9.50111 4.51921 9.69509C4.5578 9.88907 4.65304 10.0673 4.79289 10.2071C4.93275 10.347 5.11093 10.4422 5.30491 10.4808C5.49889 10.5194 5.69996 10.4996 5.88268 10.4239C6.06541 10.3482 6.22159 10.22 6.33147 10.0556C6.44135 9.89112 6.5 9.69778 6.5 9.5C6.5 9.23478 6.39464 8.98043 6.20711 8.79289C6.01957 8.60536 5.76522 8.5 5.5 8.5Z" fill="#006399"/>
<path d="M16.75 5H16.5V2.5C16.4995 1.96973 16.2886 1.46132 15.9136 1.08636C15.5387 0.711396 15.0303 0.500516 14.5 0.5H5.5C4.96973 0.500516 4.46132 0.711396 4.08636 1.08636C3.7114 1.46132 3.50052 1.96973 3.5 2.5V5H3.25C2.42179 4.96909 1.61502 5.2673 1.00603 5.82945C0.397035 6.3916 0.0353404 7.17197 0 8V13C0.0353404 13.828 0.397035 14.6084 1.00603 15.1706C1.61502 15.7327 2.42179 16.0309 3.25 16H3.5V17.5C3.50052 18.0303 3.7114 18.5387 4.08636 18.9136C4.46132 19.2886 4.96973 19.4995 5.5 19.5H14.5C15.0303 19.4995 15.5387 19.2886 15.9136 18.9136C16.2886 18.5387 16.4995 18.0303 16.5 17.5V16H16.75C17.5782 16.0309 18.385 15.7327 18.994 15.1706C19.603 14.6084 19.9647 13.828 20 13V8C19.9647 7.17197 19.603 6.3916 18.994 5.82945C18.385 5.2673 17.5782 4.96909 16.75 5ZM5.5 2.5H14.5V5H5.5V2.5ZM5.5 17.5V14H14.5L14.501 17.5H5.5ZM18 13C17.963 13.2967 17.8116 13.5672 17.5781 13.7539C17.3447 13.9407 17.0476 14.029 16.75 14H16.5V13C16.4999 12.7348 16.3945 12.4806 16.2069 12.2931C16.0194 12.1055 15.7652 12.0001 15.5 12H4.5C4.23483 12.0001 3.98056 12.1055 3.79305 12.2931C3.60555 12.4806 3.50015 12.7348 3.5 13V14H3.25C2.95244 14.029 2.65531 13.9407 2.42186 13.7539C2.1884 13.5672 2.03704 13.2967 2 13V8C2.03704 7.70333 2.1884 7.43284 2.42186 7.24607C2.65531 7.05931 2.95244 6.97102 3.25 7H16.75C17.0476 6.97102 17.3447 7.05931 17.5781 7.24607C17.8116 7.43284 17.963 7.70333 18 8V13Z" fill="#006399"/>
</svg>
