<svg xmlns="http://www.w3.org/2000/svg" xmlns:xlink="http://www.w3.org/1999/xlink" width="48" height="48" viewBox="0 0 48 48">
  <defs>
    <clipPath id="clip-path">
      <rect width="48" height="48"/>
    </clipPath>
  </defs>
  <g id="icones">
    <path d="M17.6777,37.3936a2.0591,2.0591,0,0,1-2.9121,0l-4.2011-4.2007a2.0027,2.0027,0,0,1,0-2.8291l8.4863-8.4849a4.0006,4.0006,0,0,0-5.6572,0L7.7363,27.5356A5.9976,5.9976,0,0,0,6.08,32.8984a6.2512,6.2512,0,0,0,1.7988,3.2642L11.98,40.2637a6.0084,6.0084,0,0,0,8.4853,0L25.44,35.2886A3.9109,3.9109,0,0,0,25.4,29.7207Z"/>
    <path d="M41.916,15.085a6.2292,6.2292,0,0,0-1.7832-3.2364L36.0205,7.7368a5.999,5.999,0,0,0-8.4853-.001l-5.6563,5.6568a4,4,0,0,0,0,5.6572l8.4844-8.4849a1.9987,1.9987,0,0,1,2.8291,0l4.2431,4.2427a2.0015,2.0015,0,0,1,0,2.8281l-8.4863,8.4849a4.0006,4.0006,0,0,0,5.6572,0l5.6573-5.6567A5.9983,5.9983,0,0,0,41.916,15.085"/>
    <path d="M16.93,31.07a1.9991,1.9991,0,0,0,2.8281,0l11.3135-11.313a2,2,0,0,0-2.8291-2.8291L16.93,28.2422a1.9992,1.9992,0,0,0,0,2.8281"/>
    <g opacity="0">
      <g>
        <rect width="48" height="48"/>
        <g clip-path="url(#clip-path)">
          <g opacity="0">
            <g>
              <rect width="48" height="48"/>
              <g clip-path="url(#clip-path)">
                <rect width="48" height="48"/>
              </g>
            </g>
          </g>
        </g>
      </g>
    </g>
  </g>
</svg>
