<svg width="48" height="48" viewBox="0 0 48 48" fill="none" xmlns="http://www.w3.org/2000/svg">
<path d="M35.1946 34.5998C33.6253 34.5998 32.1492 33.9888 31.0395 32.8795L25.0399 26.8798C24.6187 26.4575 23.8845 26.4587 23.4635 26.8798L17.442 32.9015C16.3322 34.0107 14.8562 34.6217 13.2869 34.6217H12.1045L19.7032 42.2202C22.0762 44.5933 25.9238 44.5933 28.2969 42.2202L35.9172 34.5998H35.1946Z" fill="#3F3E3B"/>
<path d="M13.2868 13.3782C14.8561 13.3782 16.3322 13.9892 17.4419 15.0984L23.4634 21.121C23.897 21.5548 24.6051 21.5565 25.0399 21.1205L31.0394 15.1204C32.1491 14.0112 33.6252 13.4001 35.1945 13.4001H35.9171L28.2971 5.77989C25.9238 3.4067 22.0761 3.4067 19.7031 5.77989L12.1048 13.3782L13.2868 13.3782Z" fill="#3F3E3B"/>
<path d="M42.2202 19.7031L37.6153 15.0982C37.5139 15.1388 37.4042 15.1641 37.2882 15.1641H35.1945C34.1121 15.1641 33.0524 15.6032 32.2875 16.3686L26.2882 22.3681C25.7268 22.9296 24.989 23.2105 24.252 23.2105C23.5143 23.2105 22.7771 22.9296 22.2158 22.3687L16.1938 16.3467C15.429 15.5811 14.3693 15.1422 13.2869 15.1422H10.7124C10.6026 15.1422 10.5 15.1163 10.4031 15.0798L5.77988 19.7031C3.40671 22.0763 3.40671 25.9237 5.77988 28.2969L10.4029 32.92C10.5 32.8835 10.6026 32.8576 10.7124 32.8576H13.2869C14.3693 32.8576 15.4289 32.4187 16.1938 31.6533L22.2153 25.6318C23.3036 24.5444 25.2009 24.544 26.2882 25.6323L32.2876 31.6314C33.0524 32.3968 34.1121 32.8358 35.1945 32.8358H37.2882C37.4041 32.8358 37.514 32.8611 37.6153 32.9018L42.2203 28.2968C44.5933 25.9237 44.5932 22.0763 42.2202 19.7031Z" fill="#3F3E3B"/>
</svg>
