<svg width="24" height="24" viewBox="0 0 24 24" fill="none" xmlns="http://www.w3.org/2000/svg">
<path d="M21.9741 8.47138C22.0282 8.23229 21.9914 7.98161 21.8707 7.76823C21.75 7.55486 21.5541 7.39411 21.3213 7.31733C21.2518 7.26064 21.1782 7.20921 21.101 7.16348L15.3291 3.83343C15.0797 3.68743 14.7959 3.61044 14.5069 3.61035C14.2179 3.61026 13.9341 3.68708 13.6846 3.83293L7.90575 7.16348C7.82635 7.2102 7.75077 7.26311 7.6797 7.32173C7.45571 7.39845 7.26697 7.55348 7.14818 7.75829C7.0294 7.9631 6.98857 8.20391 7.0332 8.43643C7.01225 8.54787 7.00114 8.66094 7 8.77433V10.9999H4C3.73478 10.9999 3.48043 11.1053 3.29289 11.2928C3.10536 11.4804 3 11.7347 3 11.9999C3 12.2651 3.10536 12.5195 3.29289 12.707C3.48043 12.8946 3.73478 12.9999 4 12.9999H7V14.4999H3C2.73478 14.4999 2.48043 14.6053 2.29289 14.7928C2.10536 14.9804 2 15.2347 2 15.4999C2 15.7651 2.10536 16.0195 2.29289 16.207C2.48043 16.3946 2.73478 16.4999 3 16.4999H7.48045C7.60291 16.6381 7.74645 16.756 7.90575 16.8493L13.6807 20.1799C13.732 20.2094 13.7877 20.2223 13.8405 20.2465C14.0199 20.4085 14.2527 20.4987 14.4944 20.4999C14.7361 20.5012 14.9699 20.4134 15.151 20.2533C15.2112 20.2324 15.27 20.2079 15.3272 20.1799L21.1007 16.8493C21.3783 16.6829 21.6074 16.4466 21.7652 16.1641C21.923 15.8815 22.0039 15.5625 22 15.2389V8.77433C21.999 8.67283 21.9904 8.57156 21.9741 8.47138ZM14.5063 5.66788L18.999 8.25993L14.5063 10.852L10.0117 8.25848L14.5063 5.66788ZM9 9.98383L13.5 12.5805V17.767L9 15.172V9.98383ZM15.5 17.7714V12.5878L20 9.99138V15.1755L15.5 17.7714Z" fill="#0071AD"/>
</svg>
