<svg width="24" height="24" viewBox="0 0 24 24" fill="none" xmlns="http://www.w3.org/2000/svg">
<path d="M21.205 18.795L19.115 16.7C19.3685 16.1691 19.5 15.5883 19.5 15C19.5 14.2089 19.2654 13.4355 18.8259 12.7777C18.3863 12.1199 17.7617 11.6072 17.0308 11.3045C16.2999 11.0017 15.4956 10.9225 14.7197 11.0769C13.9437 11.2312 13.231 11.6122 12.6716 12.1716C12.1122 12.731 11.7312 13.4437 11.5769 14.2196C11.4225 14.9956 11.5018 15.7998 11.8045 16.5307C12.1073 17.2616 12.6199 17.8863 13.2777 18.3259C13.9355 18.7654 14.7089 19 15.5 19C16.337 19.0012 17.1528 18.7369 17.83 18.245L19.795 20.205C19.9824 20.3912 20.2358 20.4958 20.5 20.4958C20.7642 20.4958 21.0177 20.3912 21.205 20.205C21.3913 20.0176 21.4958 19.7642 21.4958 19.5C21.4958 19.2358 21.3913 18.9824 21.205 18.795V18.795ZM15.5 17C15.1044 17 14.7178 16.8827 14.3889 16.6629C14.06 16.4432 13.8036 16.1308 13.6522 15.7654C13.5009 15.3999 13.4613 14.9978 13.5385 14.6098C13.6156 14.2219 13.8061 13.8655 14.0858 13.5858C14.3655 13.3061 14.7218 13.1156 15.1098 13.0384C15.4978 12.9612 15.8999 13.0009 16.2654 13.1522C16.6308 13.3036 16.9432 13.5599 17.163 13.8888C17.3827 14.2177 17.5 14.6044 17.5 15C17.5 15.5304 17.2893 16.0391 16.9142 16.4142C16.5391 16.7893 16.0304 17 15.5 17Z" fill="#0071AD"/>
<path d="M10.5004 17.0751V11.0751L15.0004 8.4751V8.9751C15.0004 9.24031 15.1058 9.49465 15.2933 9.68219C15.4809 9.86973 15.7352 9.9751 16.0004 9.9751C16.2657 9.9751 16.52 9.86973 16.7075 9.68219C16.8951 9.49465 17.0004 9.24031 17.0004 8.9751V7.25009C17.0081 7.14857 17.0081 7.04662 17.0004 6.9451C17.053 6.70298 17.0138 6.44994 16.8905 6.23508C16.7687 6.02562 16.575 5.86752 16.3454 5.7901C16.2761 5.73444 16.2026 5.68429 16.1254 5.64011L10.3554 2.31009C10.1064 2.16271 9.8223 2.08496 9.53291 2.08496C9.24353 2.08496 8.95951 2.16271 8.71046 2.31009L2.93043 5.64011C2.85159 5.68597 2.7764 5.73778 2.70546 5.7951C2.4804 5.87335 2.29064 6.02936 2.17042 6.23508C2.05557 6.44016 2.01664 6.67916 2.06044 6.9101C2.03863 7.02215 2.02695 7.13594 2.02547 7.25009V13.7151C2.02255 14.0391 2.10454 14.3582 2.26332 14.6407C2.4221 14.9232 2.65211 15.1592 2.93043 15.3251L8.70546 18.6551C8.75696 18.681 8.81044 18.7028 8.86543 18.7201C9.04725 18.8777 9.27984 18.9645 9.52046 18.9645C9.76108 18.9645 9.99361 18.8777 10.1754 18.7201C10.235 18.6981 10.2934 18.6731 10.3504 18.6451C10.4643 18.5798 10.5643 18.4926 10.6445 18.3887C10.7248 18.2847 10.7838 18.166 10.8181 18.0392C10.8525 17.9125 10.8616 17.7802 10.8448 17.6499C10.828 17.5197 10.7857 17.394 10.7204 17.2801C10.6682 17.1905 10.6025 17.1095 10.5255 17.0401L10.5004 17.0751ZM9.52547 4.1351L14.0255 6.7251L9.52547 9.31509L5.02547 6.7251L9.52547 4.1351ZM4.00044 8.50009L8.50044 11.0951V16.2801L4.00044 13.6851V8.50009Z" fill="#0071AD"/>
</svg>
