<svg width="24" height="24" viewBox="0 0 24 24" fill="none" xmlns="http://www.w3.org/2000/svg">
<path d="M10.3855 19.7531C7.43387 18.8798 4.5 18.8446 4.5 18.0001L4.5 12.0001C5.25 11.2499 6.5 11.5 9 12.3313C9.66104 12.5512 11.0216 12.4306 13 12.5C14.3723 12.5481 15.3069 14.2862 14.799 14.3332C13 14.5 10.8243 14.5 9.43301 14.5C9.43301 15 10.9 16.5001 12.5 16.5001C14.5 16.5001 16.9653 15.1883 18.75 14.8313C21.25 14.3313 21.9167 15.498 22 16.0813L13.5791 19.6601C12.5708 20.0886 11.4361 20.064 10.3855 19.7531Z" fill="#0071AD"/>
<path d="M2 11.25C2 10.5596 2.55964 10 3.25 10C3.94036 10 4.5 10.5596 4.5 11.25V18.75C4.5 19.4404 3.94036 20 3.25 20C2.55964 20 2 19.4404 2 18.75V11.25Z" fill="#0071AD"/>
<path fill-rule="evenodd" clip-rule="evenodd" d="M11 3.5C11 3.22386 11.2239 3 11.5 3H12.5C12.7761 3 13 3.22386 13 3.5V4.17071C13.3572 4.29696 13.6834 4.48895 13.9639 4.73214L14.799 4.25C15.0382 4.11193 15.344 4.19387 15.4821 4.43301L15.9821 5.29904C16.1201 5.53818 16.0382 5.84398 15.799 5.98205L14.9534 6.47029C14.984 6.64224 15 6.81925 15 7C15 7.25399 14.9684 7.50061 14.909 7.73614L15.799 8.25C16.0382 8.38807 16.1201 8.69387 15.9821 8.93301L15.4821 9.79904C15.344 10.0382 15.0382 10.1201 14.799 9.98205L13.7962 9.40306C13.5561 9.58283 13.2882 9.72745 13 9.82929V10.5C13 10.7761 12.7761 11 12.5 11H11.5C11.2239 11 11 10.7761 11 10.5V9.82929C10.6036 9.6892 10.2455 9.46817 9.94546 9.18607L9.43301 9.48193C9.19387 9.62 8.88807 9.53807 8.75 9.29892L8.25 8.4329C8.11193 8.19375 8.19387 7.88795 8.43301 7.74988L9.02734 7.40675C9.00931 7.27374 9 7.13796 9 7C9 6.77682 9.02437 6.55933 9.0706 6.35004L8.43301 5.98193C8.19387 5.84386 8.11193 5.53807 8.25 5.29892L8.75 4.4329C8.88807 4.19375 9.19387 4.11181 9.43301 4.24988L10.1312 4.653C10.3895 4.4471 10.6825 4.28294 11 4.17071V3.5ZM12 8C12.5523 8 13 7.55228 13 7C13 6.44772 12.5523 6 12 6C11.4477 6 11 6.44772 11 7C11 7.55228 11.4477 8 12 8Z" fill="#0071AD"/>
</svg>
