<svg xmlns="http://www.w3.org/2000/svg" xmlns:xlink="http://www.w3.org/1999/xlink" viewBox="0 0 48 48"><defs><style>.cls-1{opacity:0;}.cls-2{clip-path:url(#clip-path);}</style><clipPath id="clip-path"><rect width="48" height="48"/></clipPath></defs><g id="icones"><g class="cls-1"><rect width="48" height="48"/><g class="cls-2"><g class="cls-1"><rect width="48" height="48"/><g class="cls-2"><rect width="48" height="48"/></g></g></g></g><path d="M37.4141,12.5859l-8-8A2.002,2.002,0,0,0,28,4H16a6.0062,6.0062,0,0,0-6,6V38a6.0062,6.0062,0,0,0,6,6H32a6.0062,6.0062,0,0,0,6-6V14a2.0011,2.0011,0,0,0-.5859-1.4141M32,40H16a2.0017,2.0017,0,0,1-2-2V10a2.0017,2.0017,0,0,1,2-2h9v5a4.0039,4.0039,0,0,0,4,4h5V38a2.0023,2.0023,0,0,1-2,2"/><path d="M23.5,22.25c1.4307,0,2.5.75,2.5,1.75h4a5.761,5.761,0,0,0-4.5-5.731V18a2,2,0,0,0-4,0v.269A5.69,5.69,0,0,0,17,23.5c0,3.0322,2.916,5.5,6.5,5.5,1.4307,0,2.5.792,2.5,1.5s-1.0693,1.75-2.5,1.75A3.7384,3.7384,0,0,1,21,31H17c0,2,1.8916,4.0151,4.5,4.731V36a2,2,0,0,0,4,0v-.269A5.69,5.69,0,0,0,30,30.5c0-3.0322-2.916-5.5-6.5-5.5-1.4316,0-2.5-.667-2.5-1.375s1.0684-1.375,2.5-1.375"/></g></svg>