<svg width="20" height="20" viewBox="0 0 20 20" fill="none" xmlns="http://www.w3.org/2000/svg">
<path d="M10 0C8.02219 0 6.08879 0.58649 4.4443 1.6853C2.79981 2.78412 1.51809 4.3459 0.761209 6.17317C0.00433284 8.00043 -0.1937 10.0111 0.192152 11.9509C0.578004 13.8907 1.53041 15.6725 2.92894 17.0711C4.32746 18.4696 6.10929 19.422 8.0491 19.8079C9.98891 20.1937 11.9996 19.9957 13.8268 19.2388C15.6541 18.4819 17.2159 17.2002 18.3147 15.5557C19.4135 13.9112 20 11.9778 20 10C19.997 7.34875 18.9425 4.80695 17.0678 2.93224C15.1931 1.05752 12.6512 0.00299084 10 0ZM10 18C8.41775 18 6.87103 17.5308 5.55544 16.6518C4.23985 15.7727 3.21447 14.5233 2.60897 13.0615C2.00347 11.5997 1.84504 9.99113 2.15372 8.43928C2.4624 6.88743 3.22433 5.46197 4.34315 4.34315C5.46197 3.22433 6.88743 2.4624 8.43928 2.15372C9.99113 1.84504 11.5997 2.00346 13.0615 2.60896C14.5233 3.21447 15.7727 4.23984 16.6518 5.55544C17.5308 6.87103 18 8.41775 18 10C17.9976 12.121 17.1539 14.1544 15.6542 15.6542C14.1544 17.1539 12.121 17.9976 10 18Z" fill="#006399"/>
<path d="M13.668 6.41795L8.5 11.5855L6.20705 9.29295C6.11463 9.19816 6.00431 9.12266 5.88249 9.07084C5.76067 9.01902 5.62976 8.9919 5.49738 8.99106C5.36499 8.99022 5.23376 9.01568 5.11129 9.06595C4.98882 9.11623 4.87755 9.19032 4.78394 9.28393C4.69032 9.37755 4.61623 9.48881 4.56596 9.61128C4.51568 9.73376 4.49022 9.86499 4.49106 9.99738C4.4919 10.1298 4.51902 10.2607 4.57084 10.3825C4.62267 10.5043 4.69816 10.6146 4.79295 10.7071L7.79295 13.7071C7.88579 13.7999 7.99602 13.8736 8.11734 13.9239C8.23865 13.9741 8.36868 14 8.5 14C8.63132 14 8.76135 13.9741 8.88267 13.9239C9.00399 13.8736 9.11421 13.7999 9.20705 13.7071L15.0821 7.83205C15.1768 7.73963 15.2523 7.62931 15.3042 7.50749C15.356 7.38566 15.3831 7.25476 15.3839 7.12238C15.3848 6.98999 15.3593 6.85876 15.309 6.73628C15.2588 6.61381 15.1847 6.50255 15.0911 6.40893C14.9975 6.31532 14.8862 6.24123 14.7637 6.19095C14.6412 6.14068 14.51 6.11522 14.3776 6.11606C14.2452 6.1169 14.1143 6.14402 13.9925 6.19584C13.8707 6.24766 13.7604 6.32316 13.668 6.41795Z" fill="#006399"/>
</svg>
