<svg width="180" height="181" viewBox="0 0 180 181" fill="none" xmlns="http://www.w3.org/2000/svg">
<g clip-path="url(#clip0_2680_5263)">
<circle cx="91.0649" cy="90.2312" r="73.2507" fill="white"/>
<path d="M157.023 58.4141C155.48 61.1132 152.889 64.6518 149.601 65.1259C147.745 60.001 144.439 56.4624 139.387 55.2587C144.659 59.6178 143.226 64.2686 143.043 62.3537C141.224 60.2381 138.358 58.6695 136.65 56.6813C131.818 59.089 128.346 66.1836 122.357 65.2534C115.156 64.1226 119.51 56.572 126.968 58.1588C124.543 51.7024 132.039 48.2552 139.387 46.3585C139.203 45.3737 139.038 44.4068 138.854 43.422C135.161 42.1637 136.411 43.2213 132.479 40.5223C135.216 36.7466 139.019 36.7284 142.877 38.6251C148.627 44.3521 153.44 51.0275 157.023 58.4141" fill="#006399"/>
<path d="M124.319 46.0334L124.181 47.6695L121.058 49.8726H119.289V48.2897L120.806 45.8967L122.863 45.4043L124.319 46.0334Z" fill="#006399"/>
<path d="M102.792 111.889C102.609 111.889 98.365 124.966 98.365 125.258C96.1053 128.814 93.4233 128.887 91.2369 131.495C89.0143 134.14 89.5103 138.736 85.7626 142.475C83.9805 144.226 77.055 146.943 76.3752 147.946C76.3015 148.056 77.055 150.81 76.1548 153.035C77.2201 153.345 78.2124 154.166 79.6269 154.549C78.745 156.591 80.1779 160.421 81.0231 162.409C78.4695 162.081 75.9893 161.607 73.5278 161.023H73.5095C70.9743 156.847 69.5964 150.554 69.1922 148.968C67.6676 143.077 64.9119 138.809 64.3055 133.848C63.2952 125.422 63.0198 123.215 58.2431 117.598C55.9838 114.935 53.0443 112.144 52.7872 108.952C52.5117 105.287 57.4717 101.657 57.4167 100.526C57.1224 95.6385 48.7086 92.1003 43.7853 89.328C39.6155 86.9935 35.7391 88.9267 31.8997 86.0634C29.0154 83.8927 25.6719 76.0323 26.4251 79.6433C22.8612 78.841 20.3628 77.5823 18.7278 75.9773C22.4387 57.2284 33.3693 41.069 48.5436 30.4541C51.6298 32.0956 54.0916 33.1354 57.8943 32.9347C56.7369 32.6794 55.0652 31.3297 52.53 31.1472C51.6848 28.8491 54.7893 29.123 51.1155 28.7399C53.2098 27.3902 55.3774 26.1501 57.6188 25.0374C57.9126 25.001 58.2065 24.9828 58.5186 24.9646C60.4112 24.8732 63.6441 28.4482 67.1346 27.2077C64.1771 29.123 68.5308 29.068 67.8881 28.977C70.1841 26.6789 70.7538 26.1501 75.1995 27.0438C72.4071 30.6548 90.9615 25.858 91.2369 32.3695C91.935 32.2052 92.6331 32.0409 93.3312 31.8585C87.6731 33.4635 87.4343 38.4246 80.1229 35.3238C82.1988 34.8132 75.2545 34.795 75.2362 35.707C73.6379 36.6917 72.9765 36.5093 71.3598 37.1659C71.7641 37.5491 73.0315 39.6283 73.289 39.4276C74.4277 38.5703 76.1364 37.7862 77.7714 37.5127C80.3617 37.0931 82.7131 37.9686 82.1621 41.8899C83.65 41.0508 86.0748 41.1419 87.7281 39.8472C95.7197 46.3583 94.7458 45.6288 95.7197 46.3583C91.88 46.4493 85.2667 52.8876 86.7546 49.313C84.1276 50.407 79.9391 51.3918 80.931 51.6839C75.8239 53.1065 57.545 64.5965 59.8231 73.0776C56.6635 70.597 45.2186 70.2507 40.3319 74.7918C33.0017 81.5764 48.1576 83.6924 47.1474 85.6074C54.9915 85.2607 48.7824 90.5317 52.0707 92.4102C56.5348 94.9272 56.6081 92.4102 60.3007 92.0821C63.479 91.8086 71.2314 93.2857 73.4541 91.4801C77.0733 95.2007 81.6658 95.9852 84.6053 98.7571C86.5341 100.563 84.5686 103.335 86.6629 104.52C88.0224 105.305 89.9145 105.36 91.2369 106.235C95.0029 108.734 101.488 106.126 102.792 111.889" fill="#006399"/>
<path d="M164.316 90.1118C164.316 95.31 163.764 100.399 162.717 105.286V105.323C158.088 116.485 151.034 127.501 145.082 135.471C141.555 130.911 141.72 131.75 140.599 126.114C139.791 121.974 140.471 121.829 140.526 117.816C140.599 114.369 141.591 116.539 140.966 113.293C140.489 110.794 137.568 108.806 137.035 106.326C136.851 105.45 137.311 103.134 137.09 102.642C136.245 100.799 136.19 100.289 136.264 100.18C136.08 100.143 135.492 99.8511 133.857 98.4286C125.811 91.4069 126.692 104.101 117.011 99.8147C109.828 96.6229 108.597 87.2667 111.445 81.9956C106.889 80.8466 110.949 78.8042 112.841 76.8889C114.329 75.3935 116.754 74.7186 118.169 73.1682C119.087 72.1652 117.305 69.5937 118.646 68.7363C122.045 66.5661 122.798 69.539 126.178 68.6271C129.062 67.8426 132.204 65.5445 136.117 64.7422C134.041 71.1987 142.197 69.995 145.798 73.0772C145.228 72.2017 145.431 71.1073 145.082 69.3384C151.695 68.39 158.143 70.2139 162.405 73.515V73.5332C163.654 78.8588 164.316 84.4034 164.316 90.1118" fill="#006399"/>
<path d="M157.023 58.4138C155.48 61.1128 152.889 64.6514 149.601 65.1073C147.746 60.0006 144.42 56.462 139.387 55.2584C144.659 59.6356 143.226 64.2864 143.061 62.3351C141.224 60.2377 138.358 58.6691 136.65 56.6809C131.836 59.0886 128.346 66.1832 122.339 65.253C119.565 64.8152 118.499 63.4109 118.701 61.9519L122.284 58.3773C123.588 57.9214 125.205 57.7935 126.968 58.1585C126.343 56.517 126.38 55.0759 126.895 53.8176L131.451 49.276L131.487 49.2578C133.765 48.0178 136.594 47.0694 139.387 46.3581C139.203 45.3915 139.02 44.3882 138.854 43.4216C138.413 43.2941 138.027 43.1663 137.715 43.0753L142.418 38.4062C142.565 38.4791 142.73 38.5519 142.877 38.6247C148.627 44.3518 153.44 51.0271 157.023 58.4138" fill="#006399"/>
<path fill-rule="evenodd" clip-rule="evenodd" d="M164.026 89.5867C163.978 86.9558 163.789 84.3629 163.468 81.8115C163.118 79.0346 162.609 76.3088 161.952 73.6392C162.001 73.8484 162.189 73.996 162.405 73.996L162.387 73.9774C162.178 73.9696 161.999 73.8236 161.952 73.6202C161.316 71.0172 160.537 68.4747 159.623 65.9976C158.699 63.4923 157.637 61.0555 156.447 58.6931C156.447 58.6919 156.446 58.6912 156.446 58.6904C154.64 55.0631 152.533 51.6148 150.162 48.3719C147.778 45.1126 145.127 42.0634 142.245 39.2512L142.278 39.2648C142.237 39.2373 142.199 39.2059 142.163 39.1714L142.163 39.171L142.163 39.1714L142.154 39.1621C138.098 35.204 133.537 31.7828 128.681 28.7874C125.468 26.8054 122.142 24.9761 118.64 23.4567C113.465 21.2113 107.987 19.4847 102.252 18.5405C98.5365 17.9292 94.7163 17.6747 90.8329 17.6832C85.0023 17.7119 79.3297 18.417 73.8956 19.733C68.2941 21.0893 62.9477 23.096 57.9417 25.6672C57.9397 25.668 57.9382 25.6688 57.9362 25.67C56.8323 26.2255 55.7467 26.8132 54.6791 27.4295C53.6095 28.0475 52.5583 28.6944 51.5254 29.3685C51.5219 29.3708 51.5184 29.3732 51.5145 29.3755L48.9855 31.0828C41.4516 36.4135 34.9951 43.1334 29.9808 50.8606C25.0597 58.444 21.5299 67.0006 19.7571 76.1778C19.3153 78.4554 18.9804 80.7694 18.7572 83.1151C18.538 85.4186 18.427 87.7527 18.4319 90.1132C18.4252 99.8572 20.3841 109.148 23.9115 117.63C27.5696 126.427 32.9157 134.36 39.5708 141.006C44.2252 145.66 49.513 149.684 55.2976 152.944C60.9955 156.155 67.1742 158.625 73.7052 160.222L73.6884 160.359L73.6997 160.399L73.7208 160.221C74.9426 160.516 76.169 160.783 77.4075 161.018C78.6332 161.251 79.8706 161.453 81.1259 161.619C81.1278 161.62 81.1298 161.62 81.1317 161.62C82.7301 161.844 84.3424 162.013 85.9688 162.127C87.5765 162.24 89.1979 162.3 90.8329 162.306C102.857 162.33 114.256 159.551 124.21 154.349C128.608 152.05 132.691 149.241 136.465 146.092C141.493 141.895 145.809 136.946 149.636 131.632C155.301 123.765 159.76 114.929 162.074 105.189L162.561 105.785L162.717 105.94L162.075 105.152C162.66 102.715 163.121 100.227 163.45 97.6939C163.773 95.2033 163.97 92.6743 164.033 90.1132L164.026 89.5867V89.5867ZM142.877 39.5115L142.673 39.4147L142.653 39.412L142.623 39.4065L142.877 39.5115ZM162.87 73.5268C162.868 73.6264 162.833 73.724 162.769 73.8038C162.687 73.9061 162.565 73.9688 162.435 73.9762L162.405 73.996C162.547 73.996 162.681 73.9317 162.769 73.8216C162.837 73.7368 162.872 73.6326 162.87 73.5268ZM164.608 90.5982L164.598 90.1132C164.629 87.277 164.496 84.4799 164.21 81.7274C163.92 78.928 163.469 76.1763 162.868 73.4776L162.868 73.4722C162.866 73.4524 162.863 73.4323 162.858 73.4122C162.271 70.7588 161.537 68.1632 160.665 65.6315C159.781 63.0646 158.756 60.5647 157.598 58.1368C155.835 54.4041 153.76 50.8451 151.411 47.4905C149.043 44.1081 146.396 40.936 143.509 38.001L143.491 38.0433C143.48 37.9933 143.459 37.9507 143.426 37.917L143.417 37.9081V37.9077C139.324 33.7748 134.786 30.0519 129.77 27.0274C126.454 25.0273 122.921 23.3672 119.273 21.9427C113.921 19.8531 108.264 18.422 102.407 17.5562C98.6305 16.9979 94.7709 16.6446 90.8329 16.6357C84.9114 16.6066 79.1444 17.2714 73.6115 18.5495C67.8925 19.8705 62.4233 21.849 57.2955 24.4097C56.165 24.9626 55.0486 25.5506 53.9498 26.1685C52.8498 26.7872 51.7681 27.4365 50.7048 28.1133C50.7157 28.1063 48.1028 29.8268 48.1028 29.8268C48.1016 29.8276 48.1001 29.8284 48.0989 29.8291C40.3309 35.2017 33.6461 42.0053 28.4363 49.8618C23.3032 57.6026 19.6061 66.3649 17.6983 75.7776C17.6982 75.778 17.6981 75.7784 17.6981 75.7788C17.2315 78.1199 16.8736 80.4986 16.6327 82.9109C16.396 85.2811 16.2727 87.6834 16.2676 90.1132C16.2745 100.146 18.2848 109.718 21.9491 118.439C25.7434 127.469 31.3071 135.584 38.1898 142.377C42.9984 147.117 48.4509 151.21 54.4091 154.511C60.2674 157.757 66.6134 160.24 73.313 161.827C73.3423 161.834 73.3719 161.839 73.4016 161.843C74.6296 162.129 75.8623 162.387 77.1059 162.614C78.3636 162.843 79.6322 163.041 80.9195 163.201C82.5498 163.417 84.2 163.578 85.8639 163.683C87.5067 163.786 89.1628 163.834 90.8329 163.828C103.099 163.803 114.615 160.731 124.848 155.574C129.38 153.29 133.686 150.635 137.659 147.555C142.998 143.415 147.874 138.658 151.803 133.165C157.597 125.062 161.438 115.564 163.361 105.46L163.222 105.571C163.254 105.536 163.284 105.5 163.307 105.466L163.36 105.423C163.832 102.923 164.177 100.376 164.384 97.7904C164.575 95.4198 164.652 93.0206 164.608 90.5982V90.5982Z" fill="#006399"/>
<path fill-rule="evenodd" clip-rule="evenodd" d="M60.8193 155.659C54.1459 156.944 47.975 157.154 42.5089 156.346C39.4001 155.887 36.5515 155.055 33.9519 153.905C31.2333 152.704 28.7829 151.156 26.7272 149.095C23.851 146.262 21.8773 142.719 20.7239 138.635C18.4651 130.638 19.2982 120.616 22.8729 109.676C26.3937 98.9013 32.5136 87.2392 40.9781 75.7907C43.4766 72.4109 46.1875 69.056 49.0961 65.7518C51.8881 62.5798 54.8744 59.465 58.016 56.4038C64.4651 50.1976 71.1503 44.6716 77.8979 39.922C89.5485 31.7203 101.356 25.8313 112.231 22.4617C121.476 19.5972 130.04 18.6167 137.307 19.6778C140.177 20.097 142.841 20.8269 145.266 21.9031C147.809 23.032 150.095 24.5204 152.052 26.4357C155.412 29.6849 157.593 33.8754 158.711 38.7618C160.144 45.0269 159.856 52.4061 157.982 60.4452C157.938 60.6164 158.042 60.7911 158.214 60.8353C158.387 60.8795 158.563 60.776 158.607 60.6048C160.929 52.46 161.581 44.9056 160.399 38.4197C159.427 33.082 157.201 28.4738 153.71 24.8129C151.604 22.6295 149.133 20.8792 146.338 19.5775C143.718 18.3575 140.816 17.5238 137.686 17.0807C130.093 16.006 121.141 17.1884 111.551 20.3717C100.589 24.0105 88.7915 30.3307 77.144 38.8884C70.4533 43.8038 63.8041 49.4526 57.4217 55.8052C54.2793 58.8944 51.3137 62.0548 48.5022 65.2358C45.5725 68.5508 42.823 71.9 40.2574 75.2564C31.5104 86.6973 24.9963 98.2946 21.1473 109.095C17.1044 120.441 15.9628 130.903 18.1107 139.327C19.2851 143.934 21.4466 147.935 24.5984 151.179C26.8253 153.436 29.4256 155.253 32.3942 156.524C34.2641 157.325 36.2764 157.909 38.4007 158.292C41.2805 158.811 44.364 158.963 47.6145 158.766C51.8276 158.51 56.2995 157.663 60.9727 156.281C61.1456 156.239 61.2517 156.066 61.2095 155.894C61.1674 155.722 60.9926 155.617 60.8193 155.659V155.659Z" fill="#FFD300"/>
<path fill-rule="evenodd" clip-rule="evenodd" d="M119.475 157.812C115.712 163.433 111.53 167.943 107.114 171.24C104.601 173.116 102.004 174.545 99.3553 175.576C96.5844 176.655 93.7538 177.3 90.833 177.307C86.781 177.351 82.8543 176.26 79.1153 174.208C71.7929 170.191 65.1897 162.567 59.8519 152.359C54.5946 142.305 50.5262 129.791 48.2563 115.769C47.5859 111.63 47.0829 107.358 46.7548 102.982C46.4395 98.781 46.3017 94.4827 46.3115 90.1124C46.3872 81.1959 47.1169 72.5901 48.4471 64.4852C50.7431 50.4902 54.8084 38.0076 60.026 27.9533C64.4615 19.406 69.7704 12.6632 75.6338 8.27006C77.9493 6.53527 80.3433 5.16385 82.8172 4.2058C85.4121 3.2001 88.0847 2.62829 90.833 2.58955C95.5222 2.49464 100.059 3.89549 104.349 6.53527C109.849 9.92041 114.94 15.3046 119.39 22.2732C119.482 22.4251 119.681 22.4743 119.834 22.3832C119.986 22.2922 120.036 22.095 119.944 21.9431C115.732 14.584 110.771 8.8194 105.289 5.10148C100.778 2.04176 95.9093 0.380182 90.833 0.277907C87.7878 0.234518 84.7979 0.752478 81.9022 1.81435C79.1874 2.81037 76.5519 4.27747 74.0366 6.17924C67.9356 10.7925 62.4984 17.9521 58.0495 26.967C52.9642 37.2716 49.2147 50.0497 47.1762 64.2927C46.0052 72.4735 45.3886 81.1401 45.4651 90.1124C45.4748 94.5028 45.6598 98.8182 45.9677 103.039C46.2884 107.438 46.761 111.733 47.367 115.903C49.4328 130.12 53.1785 142.867 58.2236 153.171C63.5231 163.994 70.2262 172.146 77.7772 176.542C81.9061 178.946 86.2929 180.226 90.833 180.275C94.0152 180.285 97.1443 179.723 100.14 178.516C102.027 177.756 103.859 176.743 105.625 175.511C108.019 173.839 110.293 171.766 112.433 169.329C115.207 166.171 117.74 162.415 120.029 158.141C120.121 157.989 120.071 157.792 119.918 157.701C119.765 157.61 119.566 157.66 119.475 157.812V157.812Z" fill="#FFD300"/>
<path fill-rule="evenodd" clip-rule="evenodd" d="M131.257 151.538C136.106 152.048 140.658 152.068 144.847 151.555C148.079 151.159 151.083 150.45 153.818 149.416C155.836 148.654 157.707 147.714 159.398 146.587C162.082 144.799 164.304 142.54 166.077 139.917C168.578 136.154 169.966 131.829 170.272 127.087C170.832 118.414 167.782 108.336 161.717 97.9165C155.943 87.997 147.402 77.7784 136.695 68.1185C133.554 65.2846 130.234 62.4914 126.743 59.7641C123.392 57.1476 119.895 54.5791 116.236 52.1125C108.791 47.0259 101.213 42.68 93.7302 39.0624C80.7025 32.7643 67.939 28.6931 56.4921 27.1063C46.4776 25.7182 37.4582 26.1816 30.1915 28.6172C27.1962 29.6209 24.4959 30.9676 22.1449 32.6431C19.6373 34.4302 17.5309 36.5996 15.8619 39.1286C13.1049 43.3614 11.7654 48.2962 11.7929 53.7206C11.8263 60.3115 13.8592 67.6199 17.6421 75.2057C17.7173 75.3661 17.9095 75.4358 18.071 75.361C18.2326 75.2866 18.3027 75.0957 18.2275 74.9353C14.9037 67.3724 13.2609 60.1697 13.5161 53.75C13.7151 48.7432 15.0863 44.2273 17.7911 40.4229C19.3624 38.1841 21.3362 36.306 23.6283 34.7343C25.8133 33.2362 28.2983 32.0349 31.0427 31.1016C37.992 28.7384 46.5915 28.1473 56.2084 29.2847C67.5203 30.6224 80.214 34.2679 93.1793 40.2153C100.688 43.6601 108.278 47.8785 115.762 52.8087C119.415 55.2481 122.925 57.7678 126.254 60.3797C129.722 63.0997 133.005 65.9056 136.085 68.7744C146.515 78.4932 154.681 88.847 160.127 98.8009C165.657 108.908 168.323 118.609 167.575 126.881C167.194 131.105 165.906 134.947 163.601 138.255C161.959 140.653 159.835 142.62 157.384 144.296C155.04 145.898 152.393 147.233 149.421 148.249C144.196 150.036 138.091 150.95 131.293 150.898C131.115 150.888 130.963 151.024 130.952 151.201C130.943 151.377 131.079 151.529 131.257 151.538V151.538Z" fill="#FFD300"/>
<path fill-rule="evenodd" clip-rule="evenodd" d="M18.1374 69.3692C14.2068 72.2336 10.8281 75.2628 8.07942 78.443C5.95872 80.8964 4.21922 83.4289 2.89815 86.0218C1.92375 87.9344 1.17785 89.8799 0.692074 91.8433C-0.0790682 94.9604 -0.189226 98.1154 0.279149 101.241C0.982081 105.693 2.89015 109.819 5.88068 113.529C11.3497 120.315 20.4405 125.726 31.9913 129.374C42.9884 132.847 56.2338 134.691 70.7014 134.674C74.9454 134.669 79.2947 134.514 83.7252 134.196C87.977 133.891 92.3049 133.451 96.6827 132.828C105.637 131.611 114.187 129.757 122.172 127.429C136.075 123.375 148.272 117.851 157.811 111.371C166.156 105.702 172.509 99.3295 176.229 92.6708C177.762 89.926 178.845 87.1251 179.447 84.3149C180.088 81.3171 180.174 78.3051 179.692 75.3197C178.859 70.347 176.502 65.8035 172.803 61.8117C168.307 56.9618 161.847 52.918 153.905 49.8393C153.741 49.7712 153.551 49.8479 153.483 50.0113C153.414 50.1744 153.491 50.3623 153.656 50.4305C161.243 53.7994 167.343 58.0256 171.509 62.9421C174.758 66.7767 176.807 71.0319 177.388 75.6525C177.745 78.3581 177.56 81.0661 176.932 83.7605C176.333 86.329 175.311 88.8785 173.915 91.4032C170.38 97.7962 164.424 103.983 156.543 109.571C147.273 116.145 135.417 121.937 121.798 126.208C113.91 128.682 105.438 130.638 96.5606 131.997C92.2058 132.635 87.9021 133.119 83.6694 133.415C79.2604 133.722 74.9298 133.843 70.7077 133.781C56.4043 133.57 43.345 131.375 32.5665 127.658C21.6231 123.884 13.0726 118.494 8.01371 111.879C5.43057 108.501 3.77692 104.8 3.23733 100.813C2.8237 97.9422 3.05966 95.0684 3.73547 92.1912C4.38179 89.4395 5.43283 86.6823 6.94039 83.9445C9.59096 79.1302 13.4845 74.3725 18.545 69.8662C18.6832 69.7546 18.704 69.5524 18.5915 69.4153C18.4791 69.2781 18.2755 69.2572 18.1374 69.3692V69.3692Z" fill="#FFD300"/>
</g>
<defs>
<clipPath id="clip0_2680_5263">
<rect width="180" height="180" fill="white" transform="translate(0 0.275391)"/>
</clipPath>
</defs>
</svg>
