<svg xmlns="http://www.w3.org/2000/svg" xmlns:xlink="http://www.w3.org/1999/xlink" width="48" height="48" viewBox="0 0 48 48">
  <defs>
    <clipPath id="clip-path">
      <rect width="48" height="48"/>
    </clipPath>
  </defs>
  <g id="icones">
    <path d="M36.0146,14.9854,37.5,13.5a2.1213,2.1213,0,0,0-3-3l-1.876,1.876A16.8638,16.8638,0,0,0,26,10.1279V8h3a2,2,0,0,0,0-4H19a2,2,0,0,0,0,4h3v2.1279a17.0036,17.0036,0,1,0,14.0146,4.8575M24,40A13,13,0,1,1,37,27,13.015,13.015,0,0,1,24,40"/>
    <path d="M24,22.25c1.4307,0,2.5.75,2.5,1.75h4A5.761,5.761,0,0,0,26,18.269V18a2,2,0,0,0-4,0v.269A5.69,5.69,0,0,0,17.5,23.5c0,3.0322,2.916,5.5,6.5,5.5,1.4307,0,2.5.792,2.5,1.5s-1.0693,1.75-2.5,1.75A3.7384,3.7384,0,0,1,21.5,31h-4c0,2,1.8916,4.0151,4.5,4.731V36a2,2,0,0,0,4,0v-.269A5.69,5.69,0,0,0,30.5,30.5c0-3.0322-2.916-5.5-6.5-5.5-1.4316,0-2.5-.667-2.5-1.375S22.5684,22.25,24,22.25"/>
    <g opacity="0">
      <g>
        <rect width="48" height="48"/>
        <g clip-path="url(#clip-path)">
          <g opacity="0">
            <g>
              <rect width="48" height="48"/>
              <g clip-path="url(#clip-path)">
                <rect width="48" height="48"/>
              </g>
            </g>
          </g>
        </g>
      </g>
    </g>
  </g>
</svg>
